<svg width="85" height="14" viewBox="0 0 85 14" fill="none" xmlns="http://www.w3.org/2000/svg">
<path fill-rule="evenodd" clip-rule="evenodd" d="M6.875 1.07759C3.67318 1.07759 1.07759 3.67318 1.07759 6.875C1.07759 10.0768 3.67318 12.6724 6.875 12.6724C10.0768 12.6724 12.6724 10.0768 12.6724 6.875C12.6724 3.67318 10.0768 1.07759 6.875 1.07759ZM0 6.875C0 3.07804 3.07804 0 6.875 0C10.672 0 13.75 3.07804 13.75 6.875C13.75 10.672 10.672 13.75 6.875 13.75C3.07804 13.75 0 10.672 0 6.875Z" fill="black"/>
<path d="M8.0819 9.15948C8.03879 9.11638 8.03879 9.03017 7.99569 8.94396C7.99569 8.85776 7.95259 8.77155 7.95259 8.68534C7.86638 8.77155 7.78017 8.81466 7.69397 8.90086C7.60776 8.98707 7.47845 9.03017 7.39224 9.07328C7.26293 9.11638 7.17672 9.15948 7.00431 9.20259C6.875 9.24569 6.70259 9.24569 6.57328 9.24569C6.31465 9.24569 6.09914 9.20259 5.88362 9.11638C5.6681 9.03017 5.49569 8.94396 5.32328 8.81465C5.15086 8.68534 5.06466 8.51293 4.97845 8.34052C4.89224 8.1681 4.84914 7.95259 4.84914 7.73707C4.84914 7.21983 5.06466 6.78879 5.45259 6.53017C5.84052 6.22845 6.44397 6.09914 7.21983 6.09914H7.95259V5.79741C7.95259 5.53879 7.86638 5.36638 7.73707 5.23707C7.56466 5.10776 7.34914 5.02155 7.04741 5.02155C6.78879 5.02155 6.61638 5.06465 6.48707 5.19396C6.35776 5.32327 6.31465 5.45259 6.31465 5.625H5.02155C5.02155 5.40948 5.06465 5.19396 5.15086 5.02155C5.23707 4.84914 5.36638 4.67672 5.5819 4.50431C5.75431 4.375 5.96983 4.24569 6.22845 4.15948C6.48707 4.07328 6.78879 4.03017 7.13362 4.03017C7.43534 4.03017 7.69397 4.07328 7.95259 4.15948C8.21121 4.24569 8.42672 4.3319 8.64224 4.50431C8.81466 4.63362 8.98707 4.84914 9.07328 5.06465C9.15948 5.28017 9.24569 5.53879 9.24569 5.84052V7.99569C9.24569 8.25431 9.24569 8.46983 9.28879 8.64224C9.3319 8.81465 9.375 8.98707 9.4181 9.07328V9.15948H8.0819ZM6.8319 8.25431C6.96121 8.25431 7.09052 8.25431 7.17672 8.21121C7.30603 8.1681 7.39224 8.125 7.47845 8.0819C7.56466 8.03879 7.65086 7.99569 7.69397 7.90948C7.73707 7.86638 7.82328 7.78017 7.86638 7.73707V6.875H7.21983C7.00431 6.875 6.8319 6.875 6.70259 6.9181C6.57328 6.96121 6.44396 7.00431 6.35776 7.09052C6.27155 7.17672 6.18535 7.21983 6.14224 7.34914C6.09914 7.43534 6.09914 7.56465 6.09914 7.65086C6.09914 7.82328 6.14224 7.95259 6.27155 8.0819C6.40086 8.21121 6.61638 8.25431 6.8319 8.25431Z" fill="black"/>
<path d="M23.2432 8.15918H20.8701L20.2988 10H19.3955L21.6904 2.89062H22.4473L24.7031 10H23.8047L23.2432 8.15918ZM21.1143 7.37305H23.0039L22.0664 4.28711L21.1143 7.37305ZM29.2174 4.61914C29.3834 4.61914 29.5559 4.63053 29.735 4.65332C29.9173 4.67611 30.054 4.70703 30.1451 4.74609L30.023 5.62988C29.8473 5.59082 29.6796 5.56315 29.5201 5.54688C29.3639 5.52734 29.1995 5.51758 29.027 5.51758C28.8056 5.51758 28.6054 5.54525 28.4264 5.60059C28.2473 5.65267 28.0911 5.73079 27.9576 5.83496C27.8372 5.92611 27.7314 6.03841 27.6402 6.17188C27.5523 6.30208 27.4791 6.44857 27.4205 6.61133V10H26.5123V4.7168H27.3717L27.4107 5.4248L27.4156 5.55664C27.6305 5.26693 27.8876 5.03906 28.1871 4.87305C28.4898 4.70378 28.8333 4.61914 29.2174 4.61914ZM32.1691 10L31.0461 4.7168H31.8469L32.4621 8.08594L32.5695 8.84277L32.7014 8.08594L33.5461 4.7168H34.1271L34.967 8.08594L35.1086 8.91602L35.2404 8.08594L35.8264 4.7168H36.6271L35.5041 10H34.7912L33.966 6.7627L33.8293 5.94238L33.6975 6.7627L32.882 10H32.1691ZM39.9012 10.0977C39.5301 10.0977 39.1883 10.0342 38.8758 9.90723C38.5665 9.78027 38.3012 9.60286 38.0799 9.375C37.8585 9.14714 37.686 8.87695 37.5623 8.56445C37.4386 8.25195 37.3768 7.91178 37.3768 7.54395V7.33887C37.3768 6.91243 37.4451 6.53158 37.5818 6.19629C37.7186 5.85775 37.9008 5.57129 38.1287 5.33691C38.3533 5.10579 38.6089 4.92839 38.8953 4.80469C39.185 4.68099 39.4813 4.61914 39.784 4.61914C40.1648 4.61914 40.4969 4.68587 40.7801 4.81934C41.0665 4.94954 41.3042 5.13021 41.493 5.36133C41.6818 5.5957 41.8217 5.87077 41.9129 6.18652C42.0073 6.50228 42.0545 6.84408 42.0545 7.21191V7.61719H38.2801V7.65137C38.3029 7.90853 38.3533 8.13477 38.4314 8.33008C38.5128 8.52539 38.6235 8.69792 38.7635 8.84766C38.9067 9.00716 39.0792 9.13249 39.2811 9.22363C39.4829 9.31478 39.7059 9.36035 39.95 9.36035C40.2723 9.36035 40.5587 9.29525 40.8094 9.16504C41.06 9.03483 41.2684 8.8623 41.4344 8.64746L41.9861 9.07715C41.8104 9.34408 41.5467 9.58171 41.1951 9.79004C40.8468 9.99512 40.4155 10.0977 39.9012 10.0977ZM39.784 5.36133C39.6017 5.36133 39.4292 5.39551 39.2664 5.46387C39.1036 5.52897 38.9572 5.625 38.827 5.75195C38.6967 5.88216 38.5861 6.04167 38.4949 6.23047C38.407 6.41602 38.3452 6.63086 38.3094 6.875H41.1512V6.83105C41.1512 6.66829 41.1202 6.49414 41.0584 6.30859C40.9966 6.11979 40.9103 5.95703 40.7996 5.82031C40.6889 5.68359 40.549 5.57292 40.3797 5.48828C40.2137 5.40365 40.0151 5.36133 39.784 5.36133ZM46.9447 10C46.9089 9.93164 46.8796 9.84701 46.8568 9.74609C46.8373 9.64193 46.8227 9.53451 46.8129 9.42383C46.7217 9.51497 46.6192 9.60124 46.5053 9.68262C46.3946 9.764 46.2725 9.83561 46.1391 9.89746C46.0023 9.95931 45.8575 10.0081 45.7045 10.0439C45.5515 10.0798 45.3887 10.0977 45.2162 10.0977C44.9363 10.0977 44.6824 10.057 44.4545 9.97559C44.2299 9.89421 44.0395 9.78353 43.8832 9.64355C43.7237 9.50684 43.6 9.34408 43.5121 9.15527C43.4275 8.96322 43.3852 8.75651 43.3852 8.53516C43.3852 8.24544 43.4421 7.99154 43.5561 7.77344C43.6732 7.55534 43.8376 7.37305 44.0492 7.22656C44.2608 7.08333 44.5147 6.97591 44.8109 6.9043C45.1104 6.83268 45.4441 6.79688 45.8119 6.79688H46.7982V6.38184C46.7982 6.22233 46.7689 6.0791 46.7104 5.95215C46.6518 5.8252 46.5688 5.71615 46.4613 5.625C46.3539 5.53711 46.2221 5.46875 46.0658 5.41992C45.9128 5.37109 45.7403 5.34668 45.5482 5.34668C45.3692 5.34668 45.2081 5.36947 45.0648 5.41504C44.9249 5.46061 44.8061 5.52083 44.7084 5.5957C44.6107 5.67057 44.5342 5.76009 44.4789 5.86426C44.4268 5.96517 44.4008 6.07096 44.4008 6.18164H43.4926C43.4958 5.98958 43.5447 5.80078 43.6391 5.61523C43.7367 5.42969 43.8767 5.26204 44.059 5.1123C44.238 4.96582 44.4561 4.84701 44.7133 4.75586C44.9737 4.66471 45.2683 4.61914 45.5971 4.61914C45.8965 4.61914 46.1749 4.65658 46.432 4.73145C46.6892 4.80306 46.9122 4.91211 47.101 5.05859C47.2865 5.20833 47.433 5.39388 47.5404 5.61523C47.6479 5.83659 47.7016 6.09538 47.7016 6.3916V8.84766C47.7016 9.02344 47.7178 9.21061 47.7504 9.40918C47.7829 9.60449 47.8285 9.77539 47.8871 9.92188V10H46.9447ZM45.348 9.31152C45.5238 9.31152 45.6882 9.28874 45.8412 9.24316C45.9942 9.19759 46.1342 9.13737 46.2611 9.0625C46.3848 8.98763 46.4923 8.90299 46.5834 8.80859C46.6745 8.71094 46.7462 8.61003 46.7982 8.50586V7.43652H45.9584C45.6459 7.43652 45.3725 7.46419 45.1381 7.51953C44.907 7.57161 44.723 7.65299 44.5863 7.76367C44.4887 7.8418 44.4138 7.93457 44.3617 8.04199C44.3129 8.14941 44.2885 8.27148 44.2885 8.4082C44.2885 8.53841 44.3096 8.65885 44.352 8.76953C44.3975 8.88021 44.4643 8.97461 44.5521 9.05273C44.64 9.13411 44.7507 9.19759 44.8842 9.24316C45.0176 9.28874 45.1723 9.31152 45.348 9.31152ZM51.1807 10L49.0078 4.7168H49.9355L51.4492 8.70117L51.5322 9.02832L51.6201 8.70117L53.0996 4.7168H54.0225L51.8691 10H51.1807ZM57.6188 10.0977C57.2477 10.0977 56.9059 10.0342 56.5934 9.90723C56.2841 9.78027 56.0188 9.60286 55.7975 9.375C55.5761 9.14714 55.4036 8.87695 55.2799 8.56445C55.1562 8.25195 55.0943 7.91178 55.0943 7.54395V7.33887C55.0943 6.91243 55.1627 6.53158 55.2994 6.19629C55.4361 5.85775 55.6184 5.57129 55.8463 5.33691C56.0709 5.10579 56.3264 4.92839 56.6129 4.80469C56.9026 4.68099 57.1988 4.61914 57.5016 4.61914C57.8824 4.61914 58.2145 4.68587 58.4977 4.81934C58.7841 4.94954 59.0217 5.13021 59.2105 5.36133C59.3994 5.5957 59.5393 5.87077 59.6305 6.18652C59.7249 6.50228 59.7721 6.84408 59.7721 7.21191V7.61719H55.9977V7.65137C56.0204 7.90853 56.0709 8.13477 56.149 8.33008C56.2304 8.52539 56.3411 8.69792 56.4811 8.84766C56.6243 9.00716 56.7968 9.13249 56.9986 9.22363C57.2005 9.31478 57.4234 9.36035 57.6676 9.36035C57.9898 9.36035 58.2763 9.29525 58.527 9.16504C58.7776 9.03483 58.9859 8.8623 59.152 8.64746L59.7037 9.07715C59.5279 9.34408 59.2643 9.58171 58.9127 9.79004C58.5644 9.99512 58.1331 10.0977 57.6188 10.0977ZM57.5016 5.36133C57.3193 5.36133 57.1467 5.39551 56.984 5.46387C56.8212 5.52897 56.6747 5.625 56.5445 5.75195C56.4143 5.88216 56.3036 6.04167 56.2125 6.23047C56.1246 6.41602 56.0628 6.63086 56.027 6.875H58.8688V6.83105C58.8688 6.66829 58.8378 6.49414 58.776 6.30859C58.7141 6.11979 58.6279 5.95703 58.5172 5.82031C58.4065 5.68359 58.2665 5.57292 58.0973 5.48828C57.9313 5.40365 57.7327 5.36133 57.5016 5.36133ZM62.7629 9.41406C62.7629 9.22201 62.8215 9.05762 62.9387 8.9209C63.0559 8.78418 63.2333 8.71582 63.4709 8.71582C63.7053 8.71582 63.8827 8.78418 64.0031 8.9209C64.1268 9.05436 64.1887 9.21875 64.1887 9.41406C64.1887 9.60612 64.1268 9.76725 64.0031 9.89746C63.8794 10.0277 63.702 10.0928 63.4709 10.0928C63.2365 10.0928 63.0591 10.0277 62.9387 9.89746C62.8215 9.764 62.7629 9.60286 62.7629 9.41406ZM66.8426 7.30957C66.8426 6.92871 66.8979 6.57552 67.0086 6.25C67.1193 5.92122 67.2788 5.63639 67.4871 5.39551C67.6922 5.15462 67.9428 4.96582 68.2391 4.8291C68.5353 4.68913 68.8689 4.61914 69.24 4.61914C69.6144 4.61914 69.9497 4.68913 70.2459 4.8291C70.5454 4.96582 70.7993 5.15462 71.0076 5.39551C71.2127 5.63639 71.3706 5.92122 71.4813 6.25C71.5919 6.57552 71.6473 6.92871 71.6473 7.30957V7.41699C71.6473 7.79785 71.5919 8.15104 71.4813 8.47656C71.3706 8.80208 71.2127 9.08529 71.0076 9.32617C70.7993 9.56706 70.547 9.75586 70.2508 9.89258C69.9546 10.0293 69.6209 10.0977 69.2498 10.0977C68.8755 10.0977 68.5385 10.0293 68.2391 9.89258C67.9428 9.75586 67.6922 9.56706 67.4871 9.32617C67.2788 9.08529 67.1193 8.80208 67.0086 8.47656C66.8979 8.15104 66.8426 7.79785 66.8426 7.41699V7.30957ZM67.7459 7.41699C67.7459 7.67741 67.7768 7.92643 67.8387 8.16406C67.9005 8.39844 67.9949 8.60514 68.1219 8.78418C68.2456 8.96322 68.4018 9.10482 68.5906 9.20898C68.7794 9.31315 68.9992 9.36523 69.2498 9.36523C69.4972 9.36523 69.7137 9.31315 69.8992 9.20898C70.088 9.10482 70.2459 8.96322 70.3729 8.78418C70.4966 8.60514 70.5893 8.39844 70.6512 8.16406C70.713 7.92643 70.7439 7.67741 70.7439 7.41699V7.30957C70.7439 7.05241 70.7114 6.80664 70.6463 6.57227C70.5844 6.33464 70.4917 6.1263 70.368 5.94727C70.241 5.76823 70.0831 5.62663 69.8943 5.52246C69.7088 5.41504 69.4907 5.36133 69.24 5.36133C68.9894 5.36133 68.7713 5.41504 68.5857 5.52246C68.4002 5.62663 68.2456 5.76823 68.1219 5.94727C67.9949 6.1263 67.9005 6.33464 67.8387 6.57227C67.7768 6.80664 67.7459 7.05241 67.7459 7.30957V7.41699ZM76.4643 4.61914C76.6303 4.61914 76.8028 4.63053 76.9818 4.65332C77.1641 4.67611 77.3008 4.70703 77.392 4.74609L77.2699 5.62988C77.0941 5.59082 76.9265 5.56315 76.767 5.54688C76.6107 5.52734 76.4464 5.51758 76.2738 5.51758C76.0525 5.51758 75.8523 5.54525 75.6732 5.60059C75.4942 5.65267 75.338 5.73079 75.2045 5.83496C75.084 5.92611 74.9783 6.03841 74.8871 6.17188C74.7992 6.30208 74.726 6.44857 74.6674 6.61133V10H73.7592V4.7168H74.6186L74.6576 5.4248L74.6625 5.55664C74.8773 5.26693 75.1345 5.03906 75.434 4.87305C75.7367 4.70378 76.0801 4.61914 76.4643 4.61914ZM78.7422 7.31445C78.7422 6.92057 78.7894 6.55924 78.8838 6.23047C78.9814 5.89844 79.1214 5.61361 79.3037 5.37598C79.486 5.13835 79.7074 4.9528 79.9678 4.81934C80.2282 4.68587 80.5228 4.61914 80.8516 4.61914C81.0632 4.61914 81.2568 4.64355 81.4326 4.69238C81.6117 4.74121 81.7728 4.81283 81.916 4.90723C81.9941 4.95605 82.0674 5.01302 82.1357 5.07812C82.2074 5.14323 82.2741 5.21484 82.3359 5.29297L82.3799 4.7168H83.2002V9.8877C83.2002 10.236 83.1449 10.5452 83.0342 10.8154C82.9268 11.0856 82.7754 11.3151 82.5801 11.5039C82.3815 11.6927 82.1455 11.8359 81.8721 11.9336C81.5986 12.0312 81.2959 12.0801 80.9639 12.0801C80.8271 12.0801 80.6709 12.0638 80.4951 12.0312C80.3193 12.002 80.1419 11.9515 79.9629 11.8799C79.7806 11.8115 79.6048 11.7188 79.4355 11.6016C79.2695 11.4844 79.1263 11.3395 79.0059 11.167L79.4746 10.625C79.5853 10.7585 79.6992 10.8708 79.8164 10.9619C79.9336 11.0563 80.0524 11.1312 80.1729 11.1865C80.2933 11.2419 80.4137 11.2809 80.5342 11.3037C80.6546 11.3298 80.7751 11.3428 80.8955 11.3428C81.1104 11.3428 81.304 11.3118 81.4766 11.25C81.6491 11.1882 81.7972 11.097 81.9209 10.9766C82.0413 10.8594 82.1341 10.7129 82.1992 10.5371C82.2643 10.3613 82.2969 10.1595 82.2969 9.93164V9.47754C82.2285 9.55566 82.1553 9.62728 82.0771 9.69238C82.0023 9.75749 81.9209 9.81445 81.833 9.86328C81.6963 9.93815 81.5449 9.99512 81.3789 10.0342C81.2129 10.0765 81.0339 10.0977 80.8418 10.0977C80.5195 10.0977 80.2282 10.0293 79.9678 9.89258C79.7074 9.75586 79.4876 9.56706 79.3086 9.32617C79.1263 9.08529 78.9863 8.80208 78.8887 8.47656C78.791 8.14779 78.7422 7.7946 78.7422 7.41699V7.31445ZM79.6455 7.41699C79.6455 7.67415 79.6715 7.91829 79.7236 8.14941C79.779 8.38053 79.8652 8.58398 79.9824 8.75977C80.0964 8.93555 80.2428 9.07552 80.4219 9.17969C80.6009 9.2806 80.8158 9.33105 81.0664 9.33105C81.2227 9.33105 81.3626 9.31315 81.4863 9.27734C81.6133 9.23828 81.7272 9.18457 81.8281 9.11621C81.9258 9.04785 82.0137 8.96647 82.0918 8.87207C82.1699 8.77767 82.2383 8.6735 82.2969 8.55957V6.1377C82.2383 6.02702 82.1699 5.92611 82.0918 5.83496C82.0137 5.74382 81.9242 5.66406 81.8232 5.5957C81.7223 5.5306 81.61 5.48014 81.4863 5.44434C81.3626 5.40527 81.2259 5.38574 81.0762 5.38574C80.8223 5.38574 80.6042 5.43783 80.4219 5.54199C80.2428 5.64616 80.0964 5.78613 79.9824 5.96191C79.8652 6.14095 79.779 6.34766 79.7236 6.58203C79.6715 6.81315 79.6455 7.05729 79.6455 7.31445V7.41699Z" fill="black"/>
</svg>
