<svg width="313" height="108" viewBox="0 0 313 108" fill="none" xmlns="http://www.w3.org/2000/svg">
<g opacity="0.2">
<path fill-rule="evenodd" clip-rule="evenodd" d="M0.208559 101.699C-2.82039 102.737 -4.43447 106.034 -3.39661 109.063C-2.35874 112.092 0.938063 113.706 3.96701 112.668C6.99595 111.63 8.61004 108.333 7.57217 105.304C6.5343 102.276 3.2375 100.661 0.208559 101.699ZM-4.41601 109.412C-5.64679 105.82 -3.73268 101.911 -0.140739 100.68C3.45121 99.4491 7.3608 101.363 8.59158 104.955C9.82235 108.547 7.90825 112.457 4.31631 113.688C0.724361 114.918 -3.18523 113.004 -4.41601 109.412Z" fill="black"/>
<path d="M3.97003 108.954C3.91528 108.927 3.88733 108.845 3.81862 108.778C3.79067 108.696 3.72195 108.629 3.69401 108.547C3.6404 108.657 3.57282 108.725 3.51921 108.835C3.4656 108.944 3.35725 109.027 3.28967 109.096C3.18131 109.178 3.11373 109.247 2.9646 109.344C2.85624 109.426 2.69313 109.482 2.57081 109.524C2.32615 109.608 2.1083 109.637 1.87647 109.625C1.64465 109.614 1.4536 109.588 1.24858 109.522C1.04356 109.455 0.906119 109.32 0.768679 109.185C0.631239 109.05 0.520603 108.86 0.450744 108.656C0.283081 108.167 0.347242 107.689 0.630396 107.319C0.899577 106.907 1.42853 106.589 2.1625 106.338L2.85569 106.1L2.75789 105.815C2.67406 105.57 2.53662 105.435 2.37237 105.355C2.16735 105.288 1.93553 105.277 1.65009 105.374C1.40544 105.458 1.25631 105.555 1.17589 105.719C1.09548 105.883 1.09662 106.02 1.15251 106.183L-0.0707762 106.602C-0.140636 106.398 -0.16972 106.18 -0.144055 105.989C-0.11839 105.798 -0.0519497 105.593 0.0960436 105.36C0.217232 105.182 0.379197 104.99 0.59591 104.824C0.812623 104.659 1.08408 104.52 1.41029 104.409C1.69573 104.311 1.95435 104.268 2.22696 104.266C2.49956 104.263 2.73138 104.275 2.99115 104.368C3.19617 104.435 3.42913 104.583 3.58055 104.759C3.73196 104.934 3.89734 105.151 3.99514 105.437L4.69374 107.475C4.77757 107.72 4.84743 107.924 4.9441 108.073C5.04076 108.222 5.13742 108.371 5.20614 108.439L5.23409 108.521L3.97003 108.954ZM2.49411 108.503C2.61644 108.461 2.73877 108.419 2.80635 108.35C2.9147 108.267 2.98228 108.199 3.04986 108.13C3.11744 108.061 3.18502 107.992 3.19786 107.897C3.22466 107.842 3.27827 107.733 3.30507 107.678L3.02563 106.862L2.41399 107.072C2.21011 107.142 2.04701 107.198 1.93865 107.28C1.83029 107.363 1.72194 107.446 1.66833 107.555C1.61472 107.665 1.54714 107.733 1.54828 107.87C1.53545 107.965 1.57736 108.088 1.60531 108.169C1.6612 108.332 1.74389 108.441 1.90813 108.521C2.07238 108.601 2.29023 108.572 2.49411 108.503Z" fill="black"/>
<path d="M17.986 103.093L15.7411 103.862L15.7973 105.789L14.9428 106.081L14.8093 98.612L15.5253 98.3666L19.9638 104.361L19.1139 104.652L17.986 103.093ZM15.7172 103.039L17.5048 102.427L15.6176 99.8112L15.7172 103.039ZM22.4901 97.8073C22.6472 97.7535 22.8141 97.7083 22.9909 97.6719C23.1707 97.6343 23.3101 97.6193 23.4089 97.6267L23.5799 98.5023C23.401 98.5223 23.2334 98.5505 23.0773 98.5868C22.9231 98.619 22.7644 98.663 22.6012 98.719C22.3918 98.7907 22.2114 98.8818 22.06 98.9922C21.9075 99.0995 21.785 99.224 21.6925 99.3658C21.6081 99.4911 21.5444 99.6316 21.5015 99.7874C21.4605 99.9391 21.4387 100.101 21.4361 100.274L22.5345 103.48L21.6753 103.774L19.9628 98.7765L20.7758 98.498L21.0422 99.1551L21.0896 99.2782C21.1989 98.9345 21.3683 98.6356 21.5978 98.3815C21.8293 98.1232 22.1268 97.9318 22.4901 97.8073ZM27.0267 101.941L24.2518 97.3069L25.0093 97.0473L26.6834 100.035L27.0304 100.716L26.9098 99.9576L26.6168 96.4965L27.1665 96.3082L29.0531 99.2232L29.4561 99.9625L29.3117 99.1345L28.7739 95.7574L29.5315 95.4978L30.1816 100.86L29.5072 101.091L27.6772 98.2958L27.282 97.5641L27.4232 98.3829L27.7011 101.71L27.0267 101.941ZM34.3729 99.5269C34.0219 99.6472 33.678 99.6979 33.3412 99.6791C33.0075 99.6592 32.699 99.5774 32.4157 99.4336C32.1325 99.2898 31.8817 99.0901 31.6634 98.8346C31.445 98.5791 31.2763 98.2773 31.157 97.9293L31.0906 97.7353C30.9523 97.3319 30.8935 96.9495 30.9142 96.588C30.9338 96.2234 31.0134 95.8933 31.153 95.5977C31.2905 95.3063 31.4748 95.0556 31.7057 94.8457C31.9396 94.6348 32.1998 94.4803 32.4862 94.3821C32.8465 94.2587 33.1822 94.2142 33.4934 94.2486C33.8066 94.279 34.09 94.3729 34.3435 94.5303C34.5981 94.6908 34.8197 94.9057 35.0082 95.1748C35.1999 95.4429 35.3553 95.751 35.4746 96.0989L35.6059 96.4823L32.0353 97.7058L32.0464 97.7381C32.1513 97.974 32.2724 98.1717 32.4096 98.3311C32.5499 98.4895 32.7105 98.6169 32.8915 98.7131C33.0787 98.8176 33.2825 98.8802 33.503 98.901C33.7235 98.9219 33.9492 98.8927 34.1801 98.8135C34.485 98.7091 34.7349 98.5546 34.9298 98.3502C35.1247 98.1458 35.2659 97.915 35.3533 97.658L36.0145 97.8856C35.9348 98.1951 35.7623 98.5054 35.4973 98.8164C35.2343 99.1233 34.8595 99.3602 34.3729 99.5269ZM32.7268 95.0843C32.5543 95.1433 32.4022 95.2316 32.2704 95.349C32.1375 95.4634 32.0301 95.6017 31.9481 95.764C31.8671 95.9294 31.8141 96.1162 31.7891 96.3243C31.7661 96.5283 31.7772 96.7516 31.8225 96.9942L34.5108 96.073L34.4966 96.0315C34.4438 95.8775 34.3581 95.7228 34.2395 95.5673C34.1197 95.4087 33.9854 95.2827 33.8364 95.1892C33.6873 95.0958 33.519 95.0365 33.3315 95.0113C33.147 94.985 32.9454 95.0093 32.7268 95.0843ZM41.0045 97.1513C40.9485 97.0983 40.8933 97.0277 40.8391 96.9396C40.7868 96.8474 40.7381 96.7505 40.693 96.649C40.6364 96.7648 40.5673 96.8796 40.4859 96.9935C40.4076 97.1064 40.3153 97.2137 40.2091 97.3155C40.0998 97.4183 39.9786 97.5115 39.8455 97.5949C39.7124 97.6784 39.5642 97.7481 39.401 97.804C39.1362 97.8947 38.8828 97.9386 38.6408 97.9354C38.402 97.9313 38.1859 97.8883 37.9928 97.8065C37.7975 97.7289 37.6278 97.615 37.4834 97.4649C37.3411 97.3106 37.2341 97.1288 37.1623 96.9194C37.0684 96.6453 37.04 96.3867 37.0771 96.1434C37.1172 95.8991 37.2137 95.6734 37.3663 95.4662C37.5201 95.2621 37.7255 95.0782 37.9825 94.9144C38.2426 94.7496 38.5466 94.6076 38.8946 94.4883L39.8277 94.1686L39.6931 93.776C39.6414 93.6251 39.5673 93.4991 39.4707 93.398C39.3741 93.2969 39.2602 93.2206 39.1291 93.1692C38.999 93.1209 38.8521 93.099 38.6884 93.1034C38.5279 93.1068 38.3568 93.1397 38.1751 93.2019C38.0057 93.26 37.8607 93.3337 37.7399 93.4233C37.6223 93.5118 37.5294 93.6073 37.4613 93.7097C37.3932 93.8122 37.3498 93.9217 37.3312 94.0382C37.3147 94.1505 37.3243 94.259 37.3602 94.3638L36.501 94.6581C36.4419 94.4754 36.4269 94.281 36.456 94.0748C36.4883 93.8677 36.5663 93.6637 36.6902 93.4629C36.8121 93.2663 36.9799 93.0832 37.1937 92.9137C37.4105 92.743 37.6744 92.6044 37.9854 92.4978C38.2687 92.4008 38.5442 92.346 38.8117 92.3334C39.0782 92.3178 39.3245 92.3487 39.5506 92.4261C39.7746 92.5076 39.9734 92.6356 40.1467 92.8102C40.3201 92.9848 40.4548 93.2122 40.5508 93.4924L41.347 95.8159C41.4039 95.9822 41.48 96.154 41.5752 96.3313C41.6693 96.5055 41.7678 96.6524 41.8707 96.7719L41.896 96.8459L41.0045 97.1513ZM39.2709 97.0176C39.4372 96.9606 39.5853 96.8858 39.7153 96.7931C39.8452 96.7004 39.9581 96.598 40.0539 96.486C40.1467 96.3751 40.2209 96.2602 40.2765 96.1414C40.3311 96.0194 40.3661 95.9008 40.3816 95.7853L40.035 94.7737L39.2405 95.046C38.9449 95.1473 38.6952 95.2621 38.4914 95.3904C38.2896 95.5146 38.142 95.6512 38.0486 95.8002C37.9815 95.9058 37.9407 96.0178 37.9263 96.1363C37.9149 96.2538 37.9314 96.3772 37.9757 96.5065C38.0179 96.6297 38.077 96.7368 38.1529 96.8277C38.2319 96.9177 38.3256 96.9853 38.4341 97.0308C38.5436 97.0793 38.6689 97.1034 38.8099 97.1033C38.9509 97.1031 39.1046 97.0746 39.2709 97.0176ZM45.0117 95.7783L41.2437 91.4846L42.1213 91.1839L44.8448 94.4625L45.0294 94.7451L45.0065 94.4071L45.1145 90.1583L45.9876 89.8591L45.663 95.5551L45.0117 95.7783ZM51.1339 93.7837C50.7828 93.904 50.4389 93.9548 50.1021 93.936C49.7684 93.9161 49.4599 93.8343 49.1767 93.6905C48.8934 93.5467 48.6426 93.347 48.4243 93.0915C48.206 92.8359 48.0372 92.5342 47.918 92.1862L47.8515 91.9922C47.7133 91.5888 47.6545 91.2063 47.6751 90.8448C47.6947 90.4802 47.7743 90.1502 47.9139 89.8546C48.0515 89.5631 48.2357 89.3125 48.4666 89.1026C48.7006 88.8917 48.9608 88.7371 49.2472 88.639C49.6074 88.5156 49.9432 88.4711 50.2544 88.5055C50.5676 88.5358 50.8509 88.6297 51.1044 88.7872C51.359 88.9477 51.5806 89.1625 51.7692 89.4317C51.9608 89.6998 52.1163 90.0078 52.2355 90.3558L52.3669 90.7392L48.7963 91.9627L48.8073 91.995C48.9123 92.2309 49.0333 92.4286 49.1705 92.588C49.3108 92.7464 49.4715 92.8737 49.6524 92.97C49.8396 93.0745 50.0434 93.1371 50.2639 93.1579C50.4844 93.1787 50.7101 93.1496 50.9411 93.0704C51.2459 92.966 51.4958 92.8115 51.6907 92.6071C51.8856 92.4027 52.0268 92.1719 52.1142 91.9149L52.7755 92.1425C52.6957 92.452 52.5233 92.7623 52.2582 93.0733C51.9952 93.3802 51.6204 93.617 51.1339 93.7837ZM49.4877 89.3411C49.3153 89.4002 49.1632 89.4885 49.0313 89.6059C48.8985 89.7202 48.791 89.8586 48.709 90.0209C48.628 90.1863 48.575 90.373 48.55 90.5812C48.527 90.7852 48.5381 91.0085 48.5834 91.2511L51.2718 90.3299L51.2575 90.2883C51.2048 90.1344 51.119 89.9796 51.0004 89.8241C50.8807 89.6656 50.7463 89.5396 50.5973 89.4461C50.4483 89.3527 50.28 89.2933 50.0924 89.2681C49.9079 89.2419 49.7064 89.2662 49.4877 89.3411ZM55.7787 91.4696C55.7164 91.2879 55.7186 91.1134 55.7851 90.9461C55.8516 90.7787 55.9973 90.6566 56.2221 90.5795C56.4438 90.5036 56.6338 90.5107 56.7921 90.601C56.9524 90.6872 57.0642 90.8227 57.1275 91.0074C57.1897 91.1891 57.1834 91.3616 57.1086 91.5249C57.0338 91.6881 56.8871 91.8072 56.6684 91.8822C56.4467 91.9581 56.2578 91.954 56.1016 91.8699C55.9475 91.7816 55.8399 91.6482 55.7787 91.4696ZM58.9559 88.1563C58.8325 87.796 58.7703 87.4439 58.7695 87.1001C58.7676 86.7532 58.8262 86.4321 58.9452 86.1367C59.0611 85.8423 59.237 85.5824 59.473 85.3571C59.7078 85.1287 60.0008 84.9543 60.3518 84.834C60.706 84.7127 61.0458 84.6702 61.3714 84.7066C61.6991 84.7388 62.0005 84.8351 62.2756 84.9955C62.5477 85.1569 62.7894 85.3752 63.0007 85.6503C63.2109 85.9224 63.3777 86.2386 63.5012 86.5989L63.536 86.7005C63.6594 87.0608 63.7216 87.4128 63.7224 87.7567C63.7232 88.1005 63.6657 88.4196 63.5497 88.7139C63.4307 89.0093 63.2533 89.2697 63.0174 89.4951C62.7815 89.7204 62.488 89.8933 62.1369 90.0135C61.7828 90.1349 61.4419 90.1794 61.1143 90.1472C60.7897 90.1139 60.4914 90.0165 60.2193 89.8551C59.9442 89.6947 59.7015 89.4785 59.4912 89.2065C59.281 88.9344 59.1142 88.6182 58.9907 88.2579L58.9559 88.1563ZM59.8453 87.9651C59.9297 88.2115 60.0397 88.437 60.1752 88.6418C60.3097 88.8434 60.466 89.0084 60.6441 89.1366C60.8192 89.2659 61.0129 89.3492 61.2253 89.3865C61.4376 89.4239 61.6624 89.4019 61.8995 89.3207C62.1335 89.2405 62.3214 89.121 62.4632 88.9623C62.608 88.8026 62.7115 88.6175 62.7736 88.407C62.8325 88.1975 62.8533 87.9719 62.8358 87.7301C62.8173 87.4853 62.7659 87.2397 62.6814 86.9933L62.6466 86.8917C62.5633 86.6484 62.4528 86.4265 62.3152 86.2258C62.1797 86.0211 62.0244 85.8541 61.8494 85.7248C61.6712 85.5966 61.476 85.5138 61.2636 85.4765C61.0533 85.435 60.8295 85.4549 60.5924 85.5361C60.3553 85.6174 60.1664 85.7389 60.0257 85.9006C59.8839 86.0593 59.7835 86.2434 59.7245 86.4529C59.6625 86.6634 59.6407 86.8911 59.6592 87.1359C59.6767 87.3777 59.7271 87.6202 59.8105 87.8635L59.8453 87.9651ZM67.186 82.4923C67.343 82.4385 67.5099 82.3933 67.6867 82.3568C67.8665 82.3193 68.0059 82.3042 68.1048 82.3117L68.2758 83.1873C68.0968 83.2073 67.9293 83.2355 67.7731 83.2718C67.6189 83.304 67.4603 83.348 67.2971 83.4039C67.0877 83.4757 66.9072 83.5668 66.7558 83.6771C66.6033 83.7844 66.4808 83.909 66.3883 84.0508C66.3039 84.1761 66.2403 84.3166 66.1973 84.4724C66.1564 84.6241 66.1346 84.7864 66.1319 84.9594L67.2303 88.1651L66.3712 88.4595L64.6586 83.4615L65.4716 83.1829L65.738 83.8401L65.7854 83.9632C65.8947 83.6195 66.0641 83.3206 66.2936 83.0664C66.5252 82.8082 66.8226 82.6168 67.186 82.4923ZM70.2146 84.3037C70.0869 83.9311 70.0144 83.5739 69.9972 83.2323C69.9819 82.8866 70.022 82.5717 70.1174 82.2878C70.2129 82.004 70.3621 81.7567 70.5652 81.546C70.7683 81.3353 71.0254 81.1767 71.3364 81.0701C71.5366 81.0016 71.7277 80.9619 71.9098 80.9511C72.095 80.9392 72.2707 80.9548 72.4368 80.9976C72.5265 81.0185 72.6142 81.0486 72.7 81.0881C72.7889 81.1265 72.8752 81.1726 72.959 81.2264L72.8138 80.6671L73.5899 80.4012L75.266 85.2929C75.3789 85.6224 75.4268 85.9329 75.4097 86.2244C75.3956 86.5148 75.3268 86.781 75.2033 87.0229C75.0766 87.2658 74.8998 87.4778 74.6728 87.6589C74.4458 87.8399 74.1752 87.9842 73.8611 88.0918C73.7318 88.1361 73.5787 88.1714 73.4018 88.1976C73.226 88.2268 73.0418 88.2366 72.8493 88.2269C72.6547 88.2213 72.4583 88.1905 72.2602 88.1346C72.0651 88.0775 71.8827 87.9869 71.7128 87.8627L71.9806 87.1981C72.1285 87.2884 72.2727 87.3577 72.4131 87.406C72.5546 87.4573 72.6913 87.4896 72.8231 87.5029C72.955 87.5162 73.0816 87.5141 73.2029 87.4967C73.3253 87.4823 73.4435 87.4555 73.5574 87.4165C73.7607 87.3469 73.9339 87.2548 74.077 87.1404C74.2202 87.0259 74.3308 86.8917 74.4087 86.7377C74.4847 86.5878 74.525 86.4191 74.5296 86.2317C74.5342 86.0443 74.4996 85.8429 74.4257 85.6273L74.2785 85.1977C74.2392 85.2938 74.1931 85.3853 74.1403 85.4722C74.0906 85.558 74.032 85.6383 73.9647 85.713C73.8597 85.8281 73.7349 85.9311 73.5905 86.0219C73.4472 86.1157 73.2847 86.1938 73.103 86.256C72.7981 86.3605 72.5004 86.3902 72.2097 86.3453C71.919 86.3004 71.65 86.193 71.4025 86.0232C71.152 85.8544 70.9278 85.6318 70.7299 85.3556C70.5309 85.0762 70.3702 84.7579 70.2478 84.4007L70.2146 84.3037ZM71.1024 84.1079C71.1857 84.3511 71.2895 84.5737 71.4137 84.7754C71.541 84.9761 71.6885 85.1406 71.8564 85.2689C72.0211 85.3983 72.2051 85.4832 72.4082 85.5237C72.6103 85.5612 72.8299 85.5392 73.067 85.458C73.2148 85.4074 73.3414 85.345 73.4468 85.2711C73.5543 85.193 73.6446 85.1052 73.7179 85.0078C73.7882 84.9115 73.8449 84.806 73.8882 84.6914C73.9316 84.5768 73.9625 84.4561 73.981 84.3293L73.1959 82.0382C73.1046 81.9525 73.0072 81.8792 72.9038 81.8183C72.8003 81.7574 72.6898 81.711 72.5722 81.679C72.4556 81.6501 72.333 81.6388 72.2044 81.645C72.0747 81.6482 71.939 81.674 71.7974 81.7225C71.5572 81.8048 71.3677 81.9248 71.229 82.0824C71.0934 82.239 71.0002 82.4189 70.9494 82.6221C70.8966 82.8295 70.882 83.053 70.9056 83.2927C70.9313 83.5282 70.9858 83.7676 71.0691 84.0109L71.1024 84.1079Z" fill="black"/>
<path fill-rule="evenodd" clip-rule="evenodd" d="M85.3492 72.5254C82.3202 73.5632 80.7062 76.86 81.744 79.889C82.7819 82.9179 86.0787 84.532 89.1076 83.4942C92.1366 82.4563 93.7507 79.1595 92.7128 76.1305C91.6749 73.1016 88.3781 71.4875 85.3492 72.5254ZM80.7246 80.2383C79.4938 76.6463 81.4079 72.7368 84.9999 71.506C88.5918 70.2752 92.5014 72.1893 93.7322 75.7812C94.963 79.3732 93.0489 83.2828 89.4569 84.5136C85.865 85.7443 81.9554 83.8302 80.7246 80.2383Z" fill="black"/>
<path d="M89.1107 79.7797C89.0559 79.7529 89.028 79.6713 88.9592 79.6038C88.9313 79.5222 88.8626 79.4546 88.8346 79.3731C88.781 79.4826 88.7134 79.5513 88.6598 79.6608C88.6062 79.7703 88.4979 79.853 88.4303 79.9217C88.3219 80.0044 88.2544 80.0731 88.1052 80.1698C87.9969 80.2525 87.8338 80.3083 87.7114 80.3503C87.4668 80.4341 87.2489 80.4632 87.0171 80.4515C86.7853 80.4398 86.5942 80.4141 86.3892 80.3477C86.1842 80.2812 86.0467 80.1461 85.9093 80.0109C85.7719 79.8758 85.6612 79.6858 85.5914 79.482C85.4237 78.9927 85.4879 78.515 85.771 78.1446C86.0402 77.7335 86.5692 77.4155 87.3031 77.164L87.9963 76.9265L87.8985 76.6411C87.8147 76.3964 87.6772 76.2612 87.513 76.1808C87.308 76.1144 87.0762 76.1027 86.7907 76.2005C86.5461 76.2843 86.3969 76.381 86.3165 76.5452C86.2361 76.7095 86.2372 76.8458 86.2931 77.0089L85.0698 77.4281C85 77.2242 84.9709 77.0063 84.9966 76.8153C85.0222 76.6242 85.0887 76.4192 85.2367 76.1862C85.3579 76.008 85.5198 75.8158 85.7365 75.6504C85.9532 75.4851 86.2247 75.3465 86.5509 75.2347C86.8364 75.1369 87.095 75.0939 87.3676 75.0916C87.6402 75.0893 87.872 75.101 88.1318 75.1942C88.3368 75.2607 88.5698 75.4087 88.7212 75.5846C88.8726 75.7605 89.038 75.9772 89.1358 76.2627L89.8344 78.3015C89.9182 78.5461 89.9881 78.75 90.0847 78.8992C90.1814 79.0483 90.278 79.1974 90.3468 79.265L90.3747 79.3466L89.1107 79.7797ZM87.6347 79.3286C87.7571 79.2867 87.8794 79.2447 87.947 79.176C88.0553 79.0933 88.1229 79.0246 88.1905 78.9559C88.2581 78.8872 88.3256 78.8185 88.3385 78.7229C88.3653 78.6682 88.4189 78.5587 88.4457 78.5039L88.1663 77.6884L87.5546 77.898C87.3507 77.9678 87.1876 78.0237 87.0793 78.1064C86.9709 78.1891 86.8626 78.2718 86.809 78.3813C86.7553 78.4908 86.6878 78.5595 86.6889 78.6958C86.6761 78.7914 86.718 78.9137 86.7459 78.9952C86.8018 79.1583 86.8845 79.2667 87.0488 79.3471C87.213 79.4275 87.4309 79.3984 87.6347 79.3286Z" fill="black"/>
<path d="M103.128 73.919L100.883 74.6882L100.939 76.6149L100.084 76.9077L99.9509 69.4383L100.667 69.1929L105.105 75.1872L104.256 75.4784L103.128 73.919ZM100.859 73.8654L102.646 73.2529L100.759 70.6375L100.859 73.8654ZM107.632 68.6336C107.789 68.5798 107.956 68.5346 108.132 68.4982C108.312 68.4606 108.452 68.4456 108.551 68.453L108.722 69.3286C108.543 69.3486 108.375 69.3768 108.219 69.4131C108.065 69.4453 107.906 69.4893 107.743 69.5452C107.533 69.617 107.353 69.7081 107.202 69.8184C107.049 69.9258 106.927 70.0503 106.834 70.1921C106.75 70.3174 106.686 70.4579 106.643 70.6137C106.602 70.7654 106.58 70.9277 106.578 71.1007L107.676 74.3064L106.817 74.6008L105.104 69.6028L105.917 69.3243L106.184 69.9814L106.231 70.1045C106.34 69.7608 106.51 69.4619 106.739 69.2077C106.971 68.9495 107.268 68.7581 107.632 68.6336ZM112.168 72.7671L109.393 68.1332L110.151 67.8736L111.825 70.8614L112.172 71.5426L112.051 70.7839L111.758 67.3228L112.308 67.1345L114.195 70.0495L114.598 70.7888L114.453 69.9608L113.916 66.5837L114.673 66.3241L115.323 71.6861L114.649 71.9172L112.819 69.1221L112.424 68.3904L112.565 69.2092L112.843 72.536L112.168 72.7671ZM119.515 70.3532C119.163 70.4735 118.82 70.5242 118.483 70.5054C118.149 70.4855 117.841 70.4037 117.557 70.2599C117.274 70.1161 117.023 69.9164 116.805 69.6609C116.587 69.4054 116.418 69.1036 116.299 68.7556L116.232 68.5616C116.094 68.1582 116.035 67.7758 116.056 67.4143C116.075 67.0497 116.155 66.7196 116.295 66.424C116.432 66.1326 116.616 65.8819 116.847 65.672C117.081 65.4611 117.341 65.3066 117.628 65.2084C117.988 65.085 118.324 65.0405 118.635 65.0749C118.948 65.1053 119.232 65.1991 119.485 65.3566C119.74 65.5171 119.961 65.7319 120.15 66.0011C120.341 66.2692 120.497 66.5773 120.616 66.9252L120.748 67.3086L117.177 68.5321L117.188 68.5644C117.293 68.8003 117.414 68.998 117.551 69.1574C117.691 69.3158 117.852 69.4432 118.033 69.5394C118.22 69.6439 118.424 69.7065 118.645 69.7273C118.865 69.7481 119.091 69.719 119.322 69.6398C119.627 69.5354 119.876 69.3809 120.071 69.1765C120.266 68.9721 120.407 68.7413 120.495 68.4843L121.156 68.7119C121.076 69.0214 120.904 69.3317 120.639 69.6427C120.376 69.9496 120.001 70.1864 119.515 70.3532ZM117.868 65.9106C117.696 65.9696 117.544 66.0579 117.412 66.1753C117.279 66.2897 117.172 66.428 117.09 66.5903C117.009 66.7557 116.956 66.9425 116.931 67.1506C116.908 67.3546 116.919 67.5779 116.964 67.8205L119.652 66.8993L119.638 66.8578C119.585 66.7038 119.5 66.5491 119.381 66.3936C119.261 66.235 119.127 66.109 118.978 66.0155C118.829 65.9221 118.661 65.8628 118.473 65.8376C118.289 65.8113 118.087 65.8356 117.868 65.9106ZM126.146 67.9776C126.09 67.9246 126.035 67.854 125.981 67.7659C125.928 67.6737 125.88 67.5768 125.835 67.4753C125.778 67.5911 125.709 67.7059 125.628 67.8198C125.549 67.9327 125.457 68.04 125.351 68.1418C125.241 68.2446 125.12 68.3377 124.987 68.4212C124.854 68.5047 124.706 68.5744 124.543 68.6303C124.278 68.721 124.024 68.7649 123.782 68.7617C123.544 68.7575 123.328 68.7146 123.134 68.6328C122.939 68.5552 122.769 68.4413 122.625 68.2912C122.483 68.1369 122.376 67.9551 122.304 67.7457C122.21 67.4716 122.182 67.213 122.219 66.9697C122.259 66.7254 122.355 66.4997 122.508 66.2925C122.662 66.0884 122.867 65.9045 123.124 65.7407C123.384 65.5759 123.688 65.4339 124.036 65.3146L124.969 64.9949L124.835 64.6023C124.783 64.4514 124.709 64.3254 124.612 64.2243C124.516 64.1232 124.402 64.0469 124.271 63.9955C124.141 63.9472 123.994 63.9253 123.83 63.9297C123.669 63.9331 123.498 63.966 123.317 64.0282C123.147 64.0863 123.002 64.16 122.882 64.2496C122.764 64.3381 122.671 64.4335 122.603 64.536C122.535 64.6385 122.491 64.748 122.473 64.8645C122.456 64.9768 122.466 65.0853 122.502 65.19L121.643 65.4844C121.583 65.3017 121.568 65.1073 121.598 64.9011C121.63 64.6939 121.708 64.49 121.832 64.2892C121.954 64.0926 122.122 63.9095 122.335 63.7399C122.552 63.5693 122.816 63.4307 123.127 63.3241C123.41 63.2271 123.686 63.1723 123.953 63.1597C124.22 63.1441 124.466 63.175 124.692 63.2524C124.916 63.3339 125.115 63.4619 125.288 63.6365C125.462 63.8111 125.596 64.0385 125.692 64.3187L126.489 66.6422C126.546 66.8085 126.622 66.9802 126.717 67.1575C126.811 67.3318 126.909 67.4787 127.012 67.5982L127.038 67.6721L126.146 67.9776ZM124.412 67.8439C124.579 67.7869 124.727 67.7121 124.857 67.6194C124.987 67.5266 125.1 67.4243 125.196 67.3123C125.288 67.2014 125.362 67.0865 125.418 66.9677C125.473 66.8457 125.508 66.7271 125.523 66.6116L125.177 65.6L124.382 65.8723C124.086 65.9736 123.837 66.0884 123.633 66.2167C123.431 66.3409 123.284 66.4775 123.19 66.6265C123.123 66.7321 123.082 66.8441 123.068 66.9626C123.057 67.0801 123.073 67.2035 123.117 67.3328C123.16 67.456 123.219 67.563 123.294 67.654C123.373 67.744 123.467 67.8116 123.576 67.8571C123.685 67.9055 123.81 67.9297 123.952 67.9296C124.093 67.9294 124.246 67.9009 124.412 67.8439ZM130.153 66.6045L126.385 62.3109L127.263 62.0102L129.986 65.2888L130.171 65.5714L130.148 65.2334L130.256 60.9846L131.129 60.6854L130.805 66.3814L130.153 66.6045ZM136.275 64.61C135.924 64.7303 135.58 64.7811 135.244 64.7623C134.91 64.7424 134.602 64.6606 134.318 64.5168C134.035 64.373 133.784 64.1733 133.566 63.9178C133.348 63.6622 133.179 63.3605 133.06 63.0125L132.993 62.8185C132.855 62.4151 132.796 62.0326 132.817 61.6711C132.836 61.3065 132.916 60.9765 133.056 60.6809C133.193 60.3894 133.377 60.1388 133.608 59.9289C133.842 59.718 134.102 59.5634 134.389 59.4653C134.749 59.3419 135.085 59.2974 135.396 59.3318C135.709 59.3621 135.993 59.456 136.246 59.6135C136.501 59.774 136.722 59.9888 136.911 60.258C137.102 60.5261 137.258 60.8341 137.377 61.1821L137.508 61.5655L133.938 62.789L133.949 62.8213C134.054 63.0572 134.175 63.2549 134.312 63.4143C134.452 63.5727 134.613 63.7 134.794 63.7963C134.981 63.9008 135.185 63.9634 135.406 63.9842C135.626 64.005 135.852 63.9758 136.083 63.8967C136.388 63.7922 136.637 63.6378 136.832 63.4334C137.027 63.2289 137.168 62.9982 137.256 62.7412L137.917 62.9688C137.837 63.2783 137.665 63.5885 137.4 63.8996C137.137 64.2065 136.762 64.4433 136.275 64.61ZM134.629 60.1674C134.457 60.2265 134.305 60.3148 134.173 60.4322C134.04 60.5465 133.933 60.6849 133.851 60.8472C133.77 61.0126 133.717 61.1993 133.692 61.4075C133.669 61.6115 133.68 61.8348 133.725 62.0774L136.413 61.1562L136.399 61.1146C136.346 60.9606 136.261 60.8059 136.142 60.6504C136.022 60.4919 135.888 60.3659 135.739 60.2724C135.59 60.1789 135.422 60.1196 135.234 60.0944C135.05 60.0682 134.848 60.0925 134.629 60.1674ZM140.92 62.2959C140.858 62.1142 140.86 61.9397 140.927 61.7724C140.993 61.605 141.139 61.4829 141.364 61.4058C141.585 61.3299 141.775 61.337 141.934 61.4273C142.094 61.5135 142.206 61.6489 142.269 61.8337C142.331 62.0154 142.325 62.1879 142.25 62.3512C142.175 62.5144 142.029 62.6335 141.81 62.7084C141.588 62.7844 141.399 62.7803 141.243 62.6962C141.089 62.6079 140.981 62.4745 140.92 62.2959ZM144.098 58.9826C143.974 58.6223 143.912 58.2702 143.911 57.9264C143.909 57.5795 143.968 57.2584 144.087 56.963C144.203 56.6686 144.379 56.4087 144.615 56.1834C144.849 55.9549 145.142 55.7806 145.493 55.6603C145.848 55.539 146.187 55.4965 146.513 55.5329C146.841 55.5651 147.142 55.6614 147.417 55.8218C147.689 55.9832 147.931 56.2015 148.142 56.4766C148.352 56.7487 148.519 57.0649 148.643 57.4252L148.678 57.5268C148.801 57.8871 148.863 58.2391 148.864 58.583C148.865 58.9268 148.807 59.2459 148.691 59.5402C148.572 59.8356 148.395 60.096 148.159 60.3214C147.923 60.5467 147.63 60.7195 147.279 60.8398C146.924 60.9612 146.583 61.0057 146.256 60.9735C145.931 60.9401 145.633 60.8428 145.361 60.6814C145.086 60.521 144.843 60.3048 144.633 60.0328C144.423 59.7607 144.256 59.4445 144.132 59.0842L144.098 58.9826ZM144.987 58.7914C145.071 59.0378 145.181 59.2633 145.317 59.4681C145.451 59.6697 145.608 59.8347 145.786 59.9629C145.961 60.0922 146.154 60.1755 146.367 60.2128C146.579 60.2502 146.804 60.2282 147.041 60.147C147.275 60.0668 147.463 59.9473 147.605 59.7886C147.75 59.6289 147.853 59.4438 147.915 59.2332C147.974 59.0238 147.995 58.7982 147.977 58.5564C147.959 58.3115 147.907 58.0659 147.823 57.8196L147.788 57.718C147.705 57.4747 147.594 57.2527 147.457 57.0521C147.321 56.8474 147.166 56.6804 146.991 56.5511C146.813 56.4229 146.618 56.3401 146.405 56.3028C146.195 56.2613 145.971 56.2812 145.734 56.3624C145.497 56.4437 145.308 56.5652 145.167 56.7269C145.026 56.8856 144.925 57.0697 144.866 57.2792C144.804 57.4897 144.782 57.7174 144.801 57.9622C144.818 58.204 144.869 58.4465 144.952 58.6898L144.987 58.7914ZM152.328 53.3186C152.485 53.2648 152.652 53.2196 152.828 53.1831C153.008 53.1456 153.147 53.1305 153.246 53.1379L153.417 54.0136C153.238 54.0336 153.071 54.0618 152.915 54.0981C152.761 54.1303 152.602 54.1743 152.439 54.2302C152.229 54.302 152.049 54.393 151.897 54.5034C151.745 54.6107 151.622 54.7353 151.53 54.8771C151.446 55.0024 151.382 55.1429 151.339 55.2987C151.298 55.4504 151.276 55.6127 151.273 55.7857L152.372 58.9914L151.513 59.2857L149.8 54.2878L150.613 54.0092L150.88 54.6664L150.927 54.7895C151.036 54.4458 151.206 54.1469 151.435 53.8927C151.667 53.6345 151.964 53.4431 152.328 53.3186ZM155.356 55.13C155.229 54.7574 155.156 54.4002 155.139 54.0586C155.124 53.7129 155.164 53.398 155.259 53.1141C155.354 52.8303 155.504 52.583 155.707 52.3723C155.91 52.1616 156.167 52.003 156.478 51.8964C156.678 51.8278 156.869 51.7882 157.051 51.7774C157.237 51.7655 157.412 51.781 157.578 51.8239C157.668 51.8448 157.756 51.8749 157.842 51.9144C157.93 51.9527 158.017 51.9989 158.101 52.0527L157.955 51.4934L158.731 51.2275L160.408 56.1192C160.521 56.4487 160.568 56.7592 160.551 57.0507C160.537 57.3411 160.468 57.6073 160.345 57.8492C160.218 58.0921 160.041 58.3041 159.814 58.4852C159.587 58.6662 159.317 58.8105 159.003 58.9181C158.873 58.9624 158.72 58.9977 158.543 59.0239C158.368 59.0531 158.183 59.0629 157.991 59.0532C157.796 59.0476 157.6 59.0168 157.402 58.9608C157.207 58.9038 157.024 58.8132 156.854 58.689L157.122 58.0244C157.27 58.1147 157.414 58.184 157.555 58.2323C157.696 58.2836 157.833 58.3159 157.965 58.3292C158.097 58.3425 158.223 58.3404 158.345 58.323C158.467 58.3086 158.585 58.2818 158.699 58.2428C158.902 58.1731 159.075 58.0811 159.219 57.9667C159.362 57.8522 159.472 57.718 159.55 57.564C159.626 57.4141 159.667 57.2454 159.671 57.058C159.676 56.8706 159.641 56.6692 159.567 56.4536L159.42 56.024C159.381 56.1201 159.335 56.2116 159.282 56.2985C159.232 56.3843 159.174 56.4646 159.106 56.5393C159.001 56.6544 158.877 56.7574 158.732 56.8482C158.589 56.942 158.426 57.0201 158.245 57.0823C157.94 57.1868 157.642 57.2165 157.351 57.1716C157.061 57.1267 156.792 57.0193 156.544 56.8495C156.294 56.6807 156.069 56.4581 155.871 56.1818C155.673 55.9025 155.512 55.5842 155.389 55.227L155.356 55.13ZM156.244 54.9342C156.327 55.1774 156.431 55.4 156.555 55.6017C156.683 55.8024 156.83 55.9669 156.998 56.0952C157.163 56.2246 157.347 56.3095 157.55 56.35C157.752 56.3875 157.971 56.3655 158.209 56.2843C158.356 56.2336 158.483 56.1713 158.588 56.0974C158.696 56.0193 158.786 55.9315 158.86 55.8341C158.93 55.7378 158.987 55.6323 159.03 55.5177C159.073 55.4031 159.104 55.2824 159.123 55.1556L158.338 52.8645C158.246 52.7788 158.149 52.7055 158.045 52.6446C157.942 52.5837 157.831 52.5373 157.714 52.5053C157.597 52.4764 157.475 52.4651 157.346 52.4713C157.216 52.4745 157.081 52.5003 156.939 52.5488C156.699 52.6311 156.509 52.7511 156.371 52.9087C156.235 53.0653 156.142 53.2452 156.091 53.4484C156.038 53.6558 156.024 53.8793 156.047 54.119C156.073 54.3545 156.127 54.5939 156.211 54.8372L156.244 54.9342Z" fill="black"/>
<path fill-rule="evenodd" clip-rule="evenodd" d="M170.49 43.352C167.461 44.3898 165.847 47.6866 166.885 50.7156C167.923 53.7445 171.219 55.3586 174.248 54.3208C177.277 53.2829 178.891 49.9861 177.853 46.9571C176.816 43.9282 173.519 42.3141 170.49 43.352ZM165.865 51.0649C164.634 47.4729 166.549 43.5634 170.141 42.3326C173.732 41.1018 177.642 43.0159 178.873 46.6078C180.104 50.1998 178.19 54.1094 174.598 55.3402C171.006 56.5709 167.096 54.6568 165.865 51.0649Z" fill="black"/>
<path d="M174.251 50.6063C174.197 50.5795 174.169 50.4979 174.1 50.4303C174.072 50.3488 174.003 50.2812 173.975 50.1997C173.922 50.3092 173.854 50.3779 173.8 50.4874C173.747 50.5969 173.638 50.6796 173.571 50.7483C173.463 50.831 173.395 50.8997 173.246 50.9964C173.137 51.0791 172.974 51.1349 172.852 51.1769C172.607 51.2607 172.39 51.2898 172.158 51.2781C171.926 51.2664 171.735 51.2407 171.53 51.1743C171.325 51.1078 171.187 50.9727 171.05 50.8375C170.912 50.7024 170.802 50.5124 170.732 50.3086C170.564 49.8193 170.628 49.3416 170.912 48.9712C171.181 48.56 171.71 48.2421 172.444 47.9906L173.137 47.7531L173.039 47.4677C172.955 47.223 172.818 47.0878 172.654 47.0074C172.449 46.941 172.217 46.9293 171.931 47.0271C171.687 47.1109 171.538 47.2076 171.457 47.3718C171.377 47.5361 171.378 47.6724 171.434 47.8355L170.21 48.2547C170.141 48.0508 170.112 47.8329 170.137 47.6419C170.163 47.4508 170.229 47.2458 170.377 47.0128C170.498 46.8346 170.66 46.6424 170.877 46.477C171.094 46.3117 171.365 46.1731 171.692 46.0613C171.977 45.9635 172.236 45.9205 172.508 45.9182C172.781 45.9159 173.013 45.9276 173.272 46.0208C173.477 46.0873 173.71 46.2353 173.862 46.4112C174.013 46.5871 174.179 46.8038 174.276 47.0893L174.975 49.1281C175.059 49.3727 175.129 49.5766 175.225 49.7258C175.322 49.8749 175.419 50.024 175.487 50.0916L175.515 50.1732L174.251 50.6063ZM172.775 50.1552C172.898 50.1133 173.02 50.0713 173.088 50.0026C173.196 49.9199 173.264 49.8512 173.331 49.7825C173.399 49.7138 173.466 49.645 173.479 49.5495C173.506 49.4948 173.56 49.3853 173.586 49.3305L173.307 48.515L172.695 48.7246C172.491 48.7944 172.328 48.8503 172.22 48.933C172.112 49.0157 172.003 49.0984 171.95 49.2079C171.896 49.3174 171.828 49.3861 171.83 49.5224C171.817 49.6179 171.859 49.7403 171.887 49.8218C171.942 49.9849 172.025 50.0933 172.189 50.1737C172.354 50.2541 172.571 50.225 172.775 50.1552Z" fill="black"/>
<path d="M188.268 44.7456L186.023 45.5148L186.08 47.4415L185.225 47.7343L185.092 40.2649L185.808 40.0195L190.246 46.0138L189.396 46.305L188.268 44.7456ZM185.999 44.692L187.787 44.0795L185.9 41.4641L185.999 44.692ZM192.772 39.4602C192.929 39.4064 193.096 39.3612 193.273 39.3248C193.453 39.2872 193.592 39.2722 193.691 39.2796L193.862 40.1552C193.683 40.1752 193.516 40.2034 193.359 40.2397C193.205 40.2719 193.047 40.3159 192.883 40.3718C192.674 40.4436 192.494 40.5347 192.342 40.645C192.19 40.7524 192.067 40.8769 191.975 41.0187C191.89 41.144 191.827 41.2845 191.784 41.4403C191.743 41.592 191.721 41.7543 191.718 41.9273L192.817 45.133L191.958 45.4274L190.245 40.4294L191.058 40.1509L191.324 40.808L191.372 40.9311C191.481 40.5874 191.651 40.2885 191.88 40.0343C192.112 39.7761 192.409 39.5847 192.772 39.4602ZM197.309 43.5937L194.534 38.9598L195.292 38.7002L196.966 41.688L197.313 42.3692L197.192 41.6105L196.899 38.1494L197.449 37.9611L199.335 40.8761L199.738 41.6154L199.594 40.7874L199.056 37.4103L199.814 37.1507L200.464 42.5127L199.789 42.7438L197.959 39.9487L197.564 39.217L197.705 40.0358L197.983 43.3626L197.309 43.5937ZM204.655 41.1798C204.304 41.3001 203.96 41.3508 203.623 41.332C203.29 41.3121 202.981 41.2303 202.698 41.0865C202.415 40.9427 202.164 40.743 201.946 40.4875C201.727 40.232 201.558 39.9302 201.439 39.5822L201.373 39.3882C201.235 38.9848 201.176 38.6024 201.196 38.2409C201.216 37.8763 201.296 37.5462 201.435 37.2506C201.573 36.9592 201.757 36.7085 201.988 36.4986C202.222 36.2877 202.482 36.1332 202.768 36.035C203.129 35.9116 203.464 35.8671 203.776 35.9015C204.089 35.9319 204.372 36.0257 204.626 36.1832C204.88 36.3437 205.102 36.5585 205.29 36.8277C205.482 37.0958 205.638 37.4039 205.757 37.7518L205.888 38.1352L202.318 39.3587L202.329 39.391C202.434 39.6269 202.555 39.8246 202.692 39.984C202.832 40.1424 202.993 40.2698 203.174 40.366C203.361 40.4705 203.565 40.5331 203.785 40.5539C204.006 40.5747 204.231 40.5456 204.462 40.4664C204.767 40.362 205.017 40.2075 205.212 40.0031C205.407 39.7987 205.548 39.5679 205.635 39.3109L206.297 39.5385C206.217 39.848 206.045 40.1583 205.78 40.4693C205.516 40.7762 205.142 41.013 204.655 41.1798ZM203.009 36.7372C202.837 36.7962 202.684 36.8845 202.553 37.0019C202.42 37.1163 202.312 37.2546 202.23 37.4169C202.149 37.5823 202.096 37.7691 202.071 37.9772C202.048 38.1812 202.059 38.4045 202.105 38.6471L204.793 37.7259L204.779 37.6843C204.726 37.5304 204.64 37.3757 204.522 37.2202C204.402 37.0616 204.268 36.9356 204.119 36.8421C203.97 36.7487 203.801 36.6894 203.614 36.6642C203.429 36.6379 203.228 36.6622 203.009 36.7372ZM211.287 38.8042C211.231 38.7512 211.176 38.6806 211.121 38.5925C211.069 38.5003 211.02 38.4034 210.975 38.3019C210.919 38.4177 210.85 38.5325 210.768 38.6464C210.69 38.7593 210.598 38.8666 210.491 38.9684C210.382 39.0712 210.261 39.1643 210.128 39.2478C209.995 39.3313 209.846 39.401 209.683 39.4569C209.418 39.5476 209.165 39.5915 208.923 39.5883C208.684 39.5841 208.468 39.5412 208.275 39.4594C208.08 39.3818 207.91 39.2679 207.766 39.1178C207.623 38.9635 207.516 38.7817 207.445 38.5723C207.351 38.2982 207.322 38.0396 207.359 37.7963C207.399 37.552 207.496 37.3263 207.649 37.1191C207.802 36.915 208.008 36.7311 208.265 36.5673C208.525 36.4025 208.829 36.2605 209.177 36.1412L210.11 35.8215L209.975 35.4289C209.924 35.278 209.85 35.152 209.753 35.0509C209.656 34.9498 209.542 34.8735 209.411 34.8221C209.281 34.7738 209.134 34.7519 208.971 34.7563C208.81 34.7597 208.639 34.7926 208.457 34.8548C208.288 34.9129 208.143 34.9866 208.022 35.0762C207.905 35.1647 207.812 35.2601 207.744 35.3626C207.675 35.4651 207.632 35.5746 207.613 35.6911C207.597 35.8034 207.607 35.9119 207.642 36.0166L206.783 36.311C206.724 36.1283 206.709 35.9339 206.738 35.7277C206.77 35.5205 206.849 35.3166 206.972 35.1158C207.094 34.9192 207.262 34.7361 207.476 34.5665C207.693 34.3959 207.957 34.2573 208.268 34.1507C208.551 34.0537 208.826 33.9989 209.094 33.9863C209.36 33.9707 209.607 34.0016 209.833 34.079C210.057 34.1605 210.256 34.2885 210.429 34.4631C210.602 34.6377 210.737 34.8651 210.833 35.1453L211.629 37.4688C211.686 37.6351 211.762 37.8068 211.857 37.9841C211.951 38.1584 212.05 38.3053 212.153 38.4248L212.178 38.4987L211.287 38.8042ZM209.553 38.6705C209.719 38.6135 209.868 38.5387 209.997 38.4459C210.127 38.3532 210.24 38.2509 210.336 38.1389C210.429 38.028 210.503 37.9131 210.559 37.7943C210.613 37.6723 210.648 37.5537 210.664 37.4382L210.317 36.4266L209.523 36.6989C209.227 36.8002 208.977 36.915 208.774 37.0433C208.572 37.1675 208.424 37.3041 208.331 37.4531C208.264 37.5587 208.223 37.6707 208.209 37.7892C208.197 37.9067 208.214 38.0301 208.258 38.1594C208.3 38.2826 208.359 38.3896 208.435 38.4806C208.514 38.5706 208.608 38.6382 208.716 38.6836C208.826 38.7321 208.951 38.7563 209.092 38.7562C209.233 38.756 209.387 38.7275 209.553 38.6705ZM215.294 37.4311L211.526 33.1375L212.404 32.8368L215.127 36.1154L215.312 36.398L215.289 36.06L215.397 31.8112L216.27 31.512L215.945 37.208L215.294 37.4311ZM221.416 35.4366C221.065 35.5569 220.721 35.6077 220.384 35.5889C220.051 35.569 219.742 35.4872 219.459 35.3434C219.176 35.1996 218.925 34.9999 218.707 34.7444C218.488 34.4888 218.319 34.1871 218.2 33.8391L218.134 33.6451C217.995 33.2417 217.937 32.8592 217.957 32.4977C217.977 32.1331 218.057 31.8031 218.196 31.5075C218.334 31.216 218.518 30.9654 218.749 30.7555C218.983 30.5446 219.243 30.39 219.529 30.2919C219.89 30.1685 220.225 30.124 220.537 30.1584C220.85 30.1887 221.133 30.2826 221.387 30.4401C221.641 30.6006 221.863 30.8154 222.051 31.0846C222.243 31.3527 222.399 31.6607 222.518 32.0087L222.649 32.3921L219.078 33.6156L219.09 33.6479C219.194 33.8838 219.316 34.0815 219.453 34.2409C219.593 34.3993 219.754 34.5266 219.935 34.6229C220.122 34.7274 220.326 34.79 220.546 34.8108C220.767 34.8316 220.992 34.8024 221.223 34.7233C221.528 34.6188 221.778 34.4644 221.973 34.26C222.168 34.0555 222.309 33.8248 222.396 33.5678L223.058 33.7954C222.978 34.1049 222.806 34.4151 222.54 34.7262C222.277 35.0331 221.903 35.2699 221.416 35.4366ZM219.77 30.994C219.598 31.0531 219.445 31.1414 219.314 31.2588C219.181 31.3731 219.073 31.5115 218.991 31.6738C218.91 31.8392 218.857 32.0259 218.832 32.2341C218.809 32.4381 218.82 32.6614 218.866 32.904L221.554 31.9828L221.54 31.9412C221.487 31.7872 221.401 31.6325 221.283 31.477C221.163 31.3185 221.029 31.1925 220.88 31.099C220.731 31.0055 220.562 30.9462 220.375 30.921C220.19 30.8948 219.989 30.9191 219.77 30.994ZM226.061 33.1225C225.999 32.9408 226.001 32.7663 226.067 32.599C226.134 32.4316 226.28 32.3095 226.504 32.2324C226.726 32.1565 226.916 32.1636 227.074 32.2539C227.235 32.3401 227.346 32.4755 227.41 32.6603C227.472 32.842 227.466 33.0145 227.391 33.1778C227.316 33.341 227.169 33.4601 226.951 33.535C226.729 33.611 226.54 33.6069 226.384 33.5228C226.23 33.4345 226.122 33.3011 226.061 33.1225ZM229.238 29.8092C229.115 29.4489 229.053 29.0968 229.052 28.753C229.05 28.4061 229.108 28.085 229.227 27.7896C229.343 27.4952 229.519 27.2353 229.755 27.01C229.99 26.7815 230.283 26.6072 230.634 26.4869C230.988 26.3655 231.328 26.3231 231.654 26.3595C231.981 26.3917 232.283 26.488 232.558 26.6484C232.83 26.8098 233.072 27.0281 233.283 27.3032C233.493 27.5753 233.66 27.8915 233.783 28.2518L233.818 28.3534C233.942 28.7137 234.004 29.0657 234.005 29.4096C234.005 29.7534 233.948 30.0725 233.832 30.3668C233.713 30.6622 233.536 30.9226 233.3 31.148C233.064 31.3733 232.77 31.5461 232.419 31.6664C232.065 31.7878 231.724 31.8323 231.396 31.8001C231.072 31.7667 230.774 31.6694 230.502 31.508C230.226 31.3476 229.984 31.1314 229.773 30.8594C229.563 30.5873 229.396 30.2711 229.273 29.9108L229.238 29.8092ZM230.128 29.618C230.212 29.8644 230.322 30.0899 230.457 30.2947C230.592 30.4963 230.748 30.6613 230.926 30.7895C231.101 30.9188 231.295 31.0021 231.507 31.0394C231.72 31.0768 231.945 31.0548 232.182 30.9736C232.416 30.8934 232.604 30.7739 232.745 30.6152C232.89 30.4555 232.994 30.2704 233.056 30.0598C233.115 29.8504 233.136 29.6248 233.118 29.383C233.1 29.1381 233.048 28.8925 232.964 28.6462L232.929 28.5446C232.845 28.3013 232.735 28.0793 232.597 27.8787C232.462 27.674 232.307 27.507 232.132 27.3777C231.953 27.2495 231.758 27.1667 231.546 27.1294C231.335 27.0879 231.112 27.1078 230.875 27.189C230.638 27.2703 230.449 27.3918 230.308 27.5535C230.166 27.7122 230.066 27.8963 230.007 28.1058C229.945 28.3163 229.923 28.544 229.941 28.7888C229.959 29.0306 230.009 29.2731 230.093 29.5164L230.128 29.618ZM237.468 24.1452C237.625 24.0914 237.792 24.0462 237.969 24.0097C238.149 23.9722 238.288 23.9571 238.387 23.9645L238.558 24.8402C238.379 24.8602 238.211 24.8884 238.055 24.9247C237.901 24.9569 237.742 25.0009 237.579 25.0568C237.37 25.1286 237.189 25.2196 237.038 25.33C236.886 25.4373 236.763 25.5619 236.671 25.7037C236.586 25.829 236.522 25.9695 236.48 26.1253C236.439 26.277 236.417 26.4393 236.414 26.6122L237.513 29.818L236.653 30.1123L234.941 25.1144L235.754 24.8358L236.02 25.493L236.068 25.6161C236.177 25.2724 236.346 24.9735 236.576 24.7193C236.807 24.4611 237.105 24.2697 237.468 24.1452ZM240.497 25.9566C240.369 25.584 240.297 25.2268 240.279 24.8852C240.264 24.5395 240.304 24.2246 240.4 23.9407C240.495 23.6569 240.644 23.4096 240.847 23.1989C241.051 22.9882 241.308 22.8296 241.619 22.723C241.819 22.6544 242.01 22.6148 242.192 22.604C242.377 22.5921 242.553 22.6076 242.719 22.6505C242.809 22.6714 242.896 22.7015 242.982 22.741C243.071 22.7793 243.157 22.8255 243.241 22.8793L243.096 22.32L243.872 22.0541L245.548 26.9458C245.661 27.2753 245.709 27.5858 245.692 27.8773C245.678 28.1677 245.609 28.4338 245.485 28.6758C245.359 28.9187 245.182 29.1307 244.955 29.3118C244.728 29.4928 244.457 29.6371 244.143 29.7447C244.014 29.789 243.861 29.8243 243.684 29.8505C243.508 29.8797 243.324 29.8895 243.131 29.8798C242.937 29.8742 242.741 29.8434 242.542 29.7874C242.347 29.7304 242.165 29.6398 241.995 29.5156L242.263 28.851C242.411 28.9413 242.555 29.0106 242.695 29.0589C242.837 29.1102 242.973 29.1425 243.105 29.1558C243.237 29.1691 243.364 29.167 243.485 29.1496C243.608 29.1352 243.726 29.1084 243.84 29.0694C244.043 28.9997 244.216 28.9077 244.359 28.7933C244.502 28.6788 244.613 28.5446 244.691 28.3906C244.767 28.2407 244.807 28.072 244.812 27.8846C244.816 27.6972 244.782 27.4958 244.708 27.2802L244.561 26.8506C244.521 26.9467 244.475 27.0382 244.423 27.1251C244.373 27.2109 244.314 27.2912 244.247 27.3659C244.142 27.481 244.017 27.584 243.873 27.6748C243.729 27.7686 243.567 27.8467 243.385 27.9089C243.08 28.0134 242.783 28.0431 242.492 27.9982C242.201 27.9533 241.932 27.8459 241.685 27.6761C241.434 27.5073 241.21 27.2847 241.012 27.0084C240.813 26.7291 240.652 26.4108 240.53 26.0536L240.497 25.9566ZM241.385 25.7608C241.468 26.004 241.572 26.2266 241.696 26.4283C241.823 26.629 241.971 26.7935 242.139 26.9218C242.303 27.0512 242.487 27.1361 242.69 27.1766C242.893 27.2141 243.112 27.1921 243.349 27.1109C243.497 27.0602 243.624 26.9979 243.729 26.924C243.836 26.8459 243.927 26.7581 244 26.6607C244.07 26.5644 244.127 26.4589 244.17 26.3443C244.214 26.2297 244.245 26.109 244.263 25.9822L243.478 23.6911C243.387 23.6054 243.289 23.5321 243.186 23.4712C243.083 23.4103 242.972 23.3639 242.854 23.3319C242.738 23.303 242.615 23.2917 242.487 23.2979C242.357 23.3011 242.221 23.3269 242.08 23.3754C241.839 23.4577 241.65 23.5777 241.511 23.7353C241.376 23.8919 241.282 24.0718 241.232 24.275C241.179 24.4824 241.164 24.7059 241.188 24.9456C241.214 25.1811 241.268 25.4205 241.351 25.6638L241.385 25.7608Z" fill="black"/>
<path fill-rule="evenodd" clip-rule="evenodd" d="M255.63 14.1786C252.601 15.2164 250.987 18.5132 252.025 21.5422C253.063 24.5711 256.36 26.1852 259.389 25.1474C262.418 24.1095 264.032 20.8127 262.994 17.7837C261.956 14.7548 258.659 13.1407 255.63 14.1786ZM251.006 21.8915C249.775 18.2995 251.689 14.39 255.281 13.1592C258.873 11.9284 262.783 13.8425 264.013 17.4344C265.244 21.0264 263.33 24.936 259.738 26.1668C256.146 27.3975 252.237 25.4834 251.006 21.8915Z" fill="black"/>
<path d="M259.392 21.4329C259.337 21.4061 259.309 21.3245 259.24 21.2569C259.213 21.1754 259.144 21.1078 259.116 21.0263C259.062 21.1358 258.995 21.2045 258.941 21.314C258.887 21.4235 258.779 21.5062 258.712 21.5749C258.603 21.6576 258.536 21.7263 258.386 21.823C258.278 21.9057 258.115 21.9615 257.993 22.0035C257.748 22.0873 257.53 22.1164 257.298 22.1047C257.067 22.093 256.875 22.0673 256.67 22.0009C256.465 21.9344 256.328 21.7993 256.191 21.6641C256.053 21.529 255.942 21.339 255.873 21.1352C255.705 20.6459 255.769 20.1682 256.052 19.7978C256.321 19.3866 256.85 19.0687 257.584 18.8172L258.278 18.5797L258.18 18.2943C258.096 18.0496 257.958 17.9144 257.794 17.834C257.589 17.7676 257.357 17.7559 257.072 17.8537C256.827 17.9375 256.678 18.0342 256.598 18.1984C256.517 18.3627 256.518 18.499 256.574 18.6621L255.351 19.0812C255.281 18.8774 255.252 18.6595 255.278 18.4685C255.303 18.2774 255.37 18.0724 255.518 17.8394C255.639 17.6612 255.801 17.469 256.018 17.3036C256.234 17.1383 256.506 16.9997 256.832 16.8879C257.118 16.7901 257.376 16.747 257.649 16.7448C257.921 16.7425 258.153 16.7542 258.413 16.8474C258.618 16.9139 258.851 17.0619 259.002 17.2378C259.154 17.4137 259.319 17.6304 259.417 17.9159L260.116 19.9547C260.199 20.1993 260.269 20.4032 260.366 20.5524C260.463 20.7015 260.559 20.8506 260.628 20.9182L260.656 20.9998L259.392 21.4329ZM257.916 20.9818C258.038 20.9399 258.161 20.8979 258.228 20.8292C258.337 20.7465 258.404 20.6778 258.472 20.6091C258.539 20.5404 258.607 20.4716 258.62 20.3761C258.647 20.3214 258.7 20.2119 258.727 20.1571L258.448 19.3416L257.836 19.5512C257.632 19.621 257.469 19.6769 257.361 19.7596C257.252 19.8423 257.144 19.925 257.09 20.0345C257.037 20.144 256.969 20.2127 256.97 20.349C256.957 20.4445 256.999 20.5669 257.027 20.6484C257.083 20.8115 257.166 20.9199 257.33 21.0003C257.494 21.0807 257.712 21.0516 257.916 20.9818Z" fill="black"/>
<path d="M273.409 15.5722L271.164 16.3414L271.22 18.2681L270.366 18.5609L270.232 11.0915L270.948 10.8461L275.387 16.8404L274.537 17.1316L273.409 15.5722ZM271.14 15.5186L272.928 14.9061L271.041 12.2907L271.14 15.5186ZM277.913 10.2868C278.07 10.233 278.237 10.1878 278.414 10.1513C278.594 10.1138 278.733 10.0988 278.832 10.1062L279.003 10.9818C278.824 11.0018 278.656 11.03 278.5 11.0663C278.346 11.0985 278.187 11.1425 278.024 11.1984C277.815 11.2702 277.634 11.3613 277.483 11.4716C277.33 11.579 277.208 11.7035 277.115 11.8453C277.031 11.9706 276.967 12.1111 276.924 12.2669C276.883 12.4186 276.862 12.5809 276.859 12.7539L277.957 15.9596L277.098 16.254L275.386 11.256L276.199 10.9775L276.465 11.6346L276.512 11.7577C276.622 11.414 276.791 11.1151 277.021 10.8609C277.252 10.6027 277.55 10.4113 277.913 10.2868ZM282.45 14.4203L279.675 9.7864L280.432 9.52682L282.106 12.5146L282.453 13.1958L282.333 12.4371L282.04 8.97602L282.589 8.78768L284.476 11.7027L284.879 12.442L284.735 11.614L284.197 8.23688L284.954 7.9773L285.604 13.3393L284.93 13.5704L283.1 10.7753L282.705 10.0436L282.846 10.8624L283.124 14.1892L282.45 14.4203ZM289.796 12.0064C289.445 12.1266 289.101 12.1774 288.764 12.1586C288.43 12.1387 288.122 12.0569 287.839 11.9131C287.555 11.7693 287.305 11.5696 287.086 11.3141C286.868 11.0586 286.699 10.7568 286.58 10.4088L286.513 10.2148C286.375 9.81141 286.316 9.42895 286.337 9.06745C286.357 8.70287 286.436 8.37279 286.576 8.07721C286.713 7.78576 286.898 7.5351 287.129 7.32523C287.362 7.1143 287.623 6.95977 287.909 6.86164C288.269 6.73818 288.605 6.69368 288.916 6.72814C289.229 6.75846 289.513 6.85234 289.766 7.00979C290.021 7.17031 290.243 7.38515 290.431 7.65431C290.623 7.92241 290.778 8.23046 290.897 8.57843L291.029 8.96182L287.458 10.1853L287.469 10.2176C287.574 10.4535 287.695 10.6512 287.832 10.8106C287.973 10.969 288.133 11.0964 288.314 11.1926C288.502 11.2971 288.705 11.3597 288.926 11.3805C289.146 11.4013 289.372 11.3722 289.603 11.293C289.908 11.1886 290.158 11.0341 290.353 10.8297C290.548 10.6253 290.689 10.3945 290.776 10.1375L291.437 10.3651C291.358 10.6746 291.185 10.9849 290.92 11.2959C290.657 11.6028 290.282 11.8396 289.796 12.0064ZM288.15 7.56375C287.977 7.62284 287.825 7.7111 287.693 7.82853C287.56 7.94287 287.453 8.0812 287.371 8.2435C287.29 8.40889 287.237 8.59566 287.212 8.80381C287.189 9.00783 287.2 9.23112 287.245 9.47369L289.934 8.55252L289.919 8.51095C289.867 8.35698 289.781 8.20225 289.662 8.04677C289.543 7.88821 289.408 7.7622 289.259 7.66874C289.11 7.57528 288.942 7.51595 288.754 7.49075C288.57 7.4645 288.368 7.48883 288.15 7.56375ZM296.427 9.63082C296.371 9.57776 296.316 9.50719 296.262 9.41911C296.21 9.3269 296.161 9.23002 296.116 9.12849C296.059 9.24426 295.99 9.3591 295.909 9.47302C295.83 9.58588 295.738 9.6932 295.632 9.79497C295.523 9.8978 295.401 9.99094 295.268 10.0744C295.135 10.1579 294.987 10.2276 294.824 10.2835C294.559 10.3742 294.306 10.4181 294.064 10.4149C293.825 10.4107 293.609 10.3678 293.416 10.286C293.22 10.2084 293.051 10.0945 292.906 9.94438C292.764 9.79013 292.657 9.6083 292.585 9.3989C292.491 9.12483 292.463 8.86616 292.5 8.62291C292.54 8.3786 292.637 8.15286 292.789 7.9457C292.943 7.74162 293.148 7.5577 293.405 7.39393C293.665 7.2291 293.969 7.08708 294.317 6.96784L295.251 6.64812L295.116 6.25549C295.064 6.1046 294.99 5.9786 294.894 5.8775C294.797 5.77639 294.683 5.70014 294.552 5.64873C294.422 5.60041 294.275 5.57847 294.111 5.58293C293.951 5.58633 293.78 5.61916 293.598 5.68142C293.429 5.73945 293.284 5.81324 293.163 5.90278C293.045 5.99126 292.952 6.08675 292.884 6.18923C292.816 6.29171 292.773 6.40119 292.754 6.51767C292.738 6.63002 292.747 6.73854 292.783 6.84324L291.924 7.13764C291.865 6.95489 291.85 6.76046 291.879 6.55433C291.911 6.34715 291.989 6.14318 292.113 5.94244C292.235 5.74583 292.403 5.56273 292.617 5.39315C292.833 5.22251 293.097 5.0839 293.408 4.97733C293.692 4.88026 293.967 4.82545 294.235 4.81292C294.501 4.79731 294.747 4.82819 294.973 4.90557C295.197 4.98708 295.396 5.11512 295.57 5.28971C295.743 5.46429 295.878 5.69169 295.974 5.97192L296.77 8.29537C296.827 8.46166 296.903 8.63345 296.998 8.81074C297.092 8.98496 297.191 9.13186 297.294 9.25144L297.319 9.32534L296.427 9.63082ZM294.694 9.49708C294.86 9.4401 295.008 9.36525 295.138 9.27255C295.268 9.17984 295.381 9.0775 295.477 8.96552C295.57 8.8546 295.644 8.73971 295.699 8.62086C295.754 8.49894 295.789 8.38026 295.804 8.26483L295.458 7.25324L294.663 7.52547C294.368 7.62677 294.118 7.74158 293.914 7.8699C293.712 7.99409 293.565 8.13069 293.471 8.27971C293.404 8.38527 293.364 8.4973 293.349 8.61581C293.338 8.73326 293.354 8.85665 293.399 8.98599C293.441 9.10917 293.5 9.21625 293.576 9.30723C293.655 9.39716 293.748 9.46483 293.857 9.51025C293.966 9.55875 294.092 9.58292 294.233 9.58277C294.374 9.58262 294.527 9.55405 294.694 9.49708ZM300.435 8.25774L296.667 3.96413L297.544 3.6634L300.268 6.94199L300.452 7.22457L300.429 6.8866L300.537 2.63778L301.41 2.33864L301.086 8.03457L300.435 8.25774ZM306.557 6.26323C306.206 6.38352 305.862 6.43426 305.525 6.41546C305.191 6.3956 304.883 6.31377 304.6 6.16996C304.316 6.02615 304.065 5.82648 303.847 5.57095C303.629 5.31542 303.46 5.01367 303.341 4.66569L303.274 4.47168C303.136 4.06828 303.077 3.68582 303.098 3.32432C303.118 2.95974 303.197 2.62966 303.337 2.33408C303.474 2.04263 303.659 1.79197 303.889 1.5821C304.123 1.37117 304.384 1.21664 304.67 1.11851C305.03 0.99505 305.366 0.950552 305.677 0.985009C305.99 1.01533 306.274 1.10921 306.527 1.26665C306.782 1.42717 307.003 1.64202 307.192 1.91118C307.384 2.17928 307.539 2.48733 307.658 2.8353L307.79 3.21869L304.219 4.44217L304.23 4.4745C304.335 4.71039 304.456 4.90806 304.593 5.0675C304.734 5.22589 304.894 5.35322 305.075 5.4495C305.262 5.55397 305.466 5.6166 305.687 5.63741C305.907 5.65821 306.133 5.62904 306.364 5.54991C306.669 5.44544 306.919 5.291 307.114 5.08657C307.308 4.88215 307.45 4.65141 307.537 4.39435L308.198 4.62198C308.119 4.93148 307.946 5.24175 307.681 5.55279C307.418 5.8597 307.043 6.09651 306.557 6.26323ZM304.911 1.82062C304.738 1.87971 304.586 1.96797 304.454 2.08539C304.321 2.19974 304.214 2.33807 304.132 2.50037C304.051 2.66576 303.998 2.85253 303.973 3.06068C303.95 3.2647 303.961 3.48799 304.006 3.73056L306.695 2.80939L306.68 2.76782C306.628 2.61385 306.542 2.45912 306.423 2.30364C306.304 2.14508 306.169 2.01907 306.02 1.92561C305.871 1.83215 305.703 1.77282 305.515 1.74762C305.331 1.72137 305.129 1.7457 304.911 1.82062ZM311.202 3.94908C311.139 3.76739 311.141 3.59289 311.208 3.42556C311.274 3.25824 311.42 3.13607 311.645 3.05904C311.867 2.98307 312.057 2.99023 312.215 3.08052C312.375 3.16668 312.487 3.30215 312.55 3.48691C312.613 3.6686 312.606 3.84108 312.531 4.00436C312.457 4.16763 312.31 4.28673 312.091 4.36164C311.87 4.43762 311.681 4.43353 311.525 4.3494C311.37 4.26113 311.263 4.12769 311.202 3.94908ZM314.379 0.63579C314.255 0.275495 314.193 -0.0765629 314.192 -0.420383C314.19 -0.767283 314.249 -1.08844 314.368 -1.38385C314.484 -1.6782 314.66 -1.93806 314.896 -2.16342C315.131 -2.39185 315.424 -2.56622 315.775 -2.68651C316.129 -2.80785 316.469 -2.85033 316.794 -2.81393C317.122 -2.78167 317.423 -2.68536 317.698 -2.52502C317.971 -2.36361 318.212 -2.14534 318.424 -1.87019C318.634 -1.59812 318.801 -1.28194 318.924 -0.921643L318.959 -0.820021C319.082 -0.459726 319.144 -0.107668 319.145 0.236152C319.146 0.579973 319.089 0.899061 318.973 1.19342C318.854 1.48883 318.676 1.74921 318.44 1.97457C318.204 2.19992 317.911 2.37275 317.56 2.49304C317.206 2.61438 316.865 2.65892 316.537 2.62666C316.213 2.59335 315.914 2.49599 315.642 2.33458C315.367 2.17424 315.124 1.95803 314.914 1.68596C314.704 1.41389 314.537 1.09771 314.414 0.737412L314.379 0.63579ZM315.268 0.444602C315.353 0.690958 315.463 0.916511 315.598 1.12126C315.733 1.32293 315.889 1.48788 316.067 1.6161C316.242 1.74537 316.436 1.82868 316.648 1.86602C316.86 1.90336 317.085 1.88141 317.322 1.80016C317.556 1.71997 317.744 1.60053 317.886 1.44184C318.031 1.2821 318.134 1.09697 318.196 0.886446C318.255 0.67698 318.276 0.451363 318.259 0.209594C318.24 -0.0352537 318.189 -0.280855 318.104 -0.527211L318.069 -0.628833C317.986 -0.872109 317.876 -1.09406 317.738 -1.29467C317.603 -1.49942 317.447 -1.66644 317.272 -1.79571C317.094 -1.92393 316.899 -2.00671 316.686 -2.04405C316.476 -2.08553 316.252 -2.06564 316.015 -1.98439C315.778 -1.90314 315.589 -1.78164 315.449 -1.61987C315.307 -1.46118 315.206 -1.27711 315.147 -1.06764C315.085 -0.857119 315.064 -0.629435 315.082 -0.384587C315.1 -0.142819 315.15 0.0997038 315.233 0.34298L315.268 0.444602ZM322.609 -5.02823C322.766 -5.08204 322.933 -5.12719 323.11 -5.16367C323.289 -5.2012 323.429 -5.21626 323.528 -5.20885L323.699 -4.33321C323.52 -4.31319 323.352 -4.28502 323.196 -4.24872C323.042 -4.21654 322.883 -4.1725 322.72 -4.11657C322.511 -4.04482 322.33 -3.95375 322.179 -3.84337C322.026 -3.73606 321.904 -3.61151 321.811 -3.4697C321.727 -3.34444 321.663 -3.2039 321.62 -3.0481C321.579 -2.89643 321.557 -2.73412 321.555 -2.56115L322.653 0.644553L321.794 0.938946L320.081 -4.059L320.894 -4.33756L321.161 -3.68044L321.208 -3.55731C321.318 -3.90102 321.487 -4.19994 321.716 -4.45407C321.948 -4.71233 322.245 -4.90372 322.609 -5.02823ZM325.637 -3.21683C325.51 -3.58945 325.437 -3.94657 325.42 -4.28819C325.405 -4.63395 325.445 -4.94877 325.54 -5.23266C325.636 -5.51655 325.785 -5.76383 325.988 -5.9745C326.191 -6.18517 326.448 -6.34379 326.759 -6.45037C326.959 -6.51895 327.151 -6.55864 327.333 -6.56943C327.518 -6.58127 327.694 -6.56575 327.86 -6.52288C327.949 -6.50201 328.037 -6.47186 328.123 -6.43243C328.212 -6.39406 328.298 -6.34794 328.382 -6.29408L328.237 -6.85339L329.013 -7.11929L330.689 -2.22759C330.802 -1.89809 330.85 -1.5876 330.833 -1.29613C330.818 -1.00572 330.75 -0.739551 330.626 -0.497633C330.499 -0.254659 330.323 -0.0426639 330.096 0.138354C329.869 0.319372 329.598 0.463694 329.284 0.571322C329.155 0.615639 329.002 0.65089 328.825 0.677075C328.649 0.706339 328.465 0.716115 328.272 0.706401C328.078 0.700823 327.881 0.670038 327.683 0.614046C327.488 0.557 327.306 0.466392 327.136 0.342223L327.403 -0.32245C327.551 -0.232068 327.696 -0.162758 327.836 -0.11452C327.977 -0.0632023 328.114 -0.0308887 328.246 -0.0175795C328.378 -0.00427024 328.504 -0.00635823 328.626 -0.0238435C328.748 -0.0382492 328.866 -0.0649728 328.98 -0.104014C329.184 -0.173655 329.357 -0.265693 329.5 -0.380127C329.643 -0.49456 329.754 -0.628795 329.832 -0.782831C329.908 -0.932732 329.948 -1.10138 329.952 -1.28877C329.957 -1.47617 329.922 -1.67764 329.849 -1.89321L329.701 -2.32279C329.662 -2.22672 329.616 -2.13523 329.563 -2.04832C329.513 -1.96246 329.455 -1.88219 329.388 -1.80751C329.283 -1.69237 329.158 -1.58941 329.013 -1.49864C328.87 -1.4048 328.708 -1.32675 328.526 -1.26449C328.221 -1.16003 327.923 -1.13026 327.633 -1.17518C327.342 -1.22011 327.073 -1.32749 326.825 -1.49734C326.575 -1.66612 326.351 -1.88866 326.153 -2.16495C325.954 -2.44432 325.793 -2.76262 325.671 -3.11983L325.637 -3.21683ZM326.525 -3.41264C326.609 -3.16936 326.712 -2.94685 326.837 -2.74509C326.964 -2.54439 327.111 -2.37988 327.279 -2.25158C327.444 -2.12222 327.628 -2.03729 327.831 -1.99678C328.033 -1.95935 328.253 -1.98126 328.49 -2.06251C328.638 -2.11316 328.764 -2.17547 328.87 -2.24944C328.977 -2.32754 329.067 -2.41528 329.141 -2.51266C329.211 -2.60899 329.268 -2.71446 329.311 -2.82909C329.354 -2.94372 329.385 -3.06442 329.404 -3.19119L328.619 -5.4823C328.527 -5.56801 328.43 -5.64131 328.327 -5.70221C328.223 -5.76311 328.113 -5.80954 327.995 -5.8415C327.878 -5.87038 327.756 -5.88171 327.627 -5.87549C327.498 -5.87234 327.362 -5.8465 327.22 -5.79796C326.98 -5.71566 326.791 -5.59569 326.652 -5.43806C326.516 -5.28148 326.423 -5.10159 326.372 -4.89836C326.319 -4.69101 326.305 -4.4675 326.328 -4.22784C326.354 -3.99232 326.409 -3.75292 326.492 -3.50964L326.525 -3.41264Z" fill="black"/>
</g>
</svg>
