<svg width="17" height="18" viewBox="0 0 17 18" fill="none" xmlns="http://www.w3.org/2000/svg">
<path fill-rule="evenodd" clip-rule="evenodd" d="M8.5 1.83229C4.54138 1.83229 1.33229 5.04138 1.33229 9C1.33229 12.9586 4.54138 16.1677 8.5 16.1677C12.4586 16.1677 15.6677 12.9586 15.6677 9C15.6677 5.04138 12.4586 1.83229 8.5 1.83229ZM0 9C0 4.30558 3.80558 0.5 8.5 0.5C13.1944 0.5 17 4.30558 17 9C17 13.6944 13.1944 17.5 8.5 17.5C3.80558 17.5 0 13.6944 0 9Z" fill="#F0FFE8"/>
<path d="M9.99198 11.8244C9.93869 11.7711 9.93869 11.6645 9.8854 11.5579C9.8854 11.4513 9.83211 11.3447 9.83211 11.2382C9.72552 11.3447 9.61894 11.398 9.51236 11.5046C9.40578 11.6112 9.2459 11.6645 9.13932 11.7178C8.97944 11.7711 8.87286 11.8244 8.65969 11.8776C8.49982 11.9309 8.28665 11.9309 8.12678 11.9309C7.80703 11.9309 7.54057 11.8777 7.27411 11.7711C7.00766 11.6645 6.79449 11.5579 6.58132 11.398C6.36816 11.2382 6.26157 11.025 6.15499 10.8118C6.04841 10.5987 5.99512 10.3322 5.99512 10.0657C5.99512 9.42624 6.26158 8.89332 6.7412 8.57358C7.22082 8.20053 7.9669 8.04066 8.92615 8.04066H9.83211V7.66762C9.83211 7.34787 9.72552 7.1347 9.56565 6.97483C9.35248 6.81495 9.08603 6.70837 8.71299 6.70837C8.39324 6.70837 8.18007 6.76166 8.0202 6.92154C7.86032 7.08141 7.80703 7.24129 7.80703 7.45445H6.20828C6.20828 7.188 6.26157 6.92154 6.36816 6.70837C6.47474 6.49521 6.63462 6.28204 6.90107 6.06887C7.11424 5.909 7.3807 5.74912 7.70045 5.64254C8.0202 5.53596 8.39324 5.48267 8.81957 5.48267C9.19261 5.48267 9.51236 5.53596 9.83211 5.64254C10.1519 5.74912 10.4183 5.85571 10.6848 6.06887C10.8979 6.22875 11.1111 6.4952 11.2177 6.76166C11.3243 7.02812 11.4309 7.34787 11.4309 7.72091V10.3855C11.4309 10.7052 11.4309 10.9717 11.4841 11.1849C11.5374 11.398 11.5907 11.6112 11.644 11.7178V11.8244H9.99198ZM8.44653 10.7052C8.6064 10.7052 8.76628 10.7052 8.87286 10.6519C9.03274 10.5987 9.13932 10.5454 9.2459 10.4921C9.35248 10.4388 9.45907 10.3855 9.51236 10.2789C9.56565 10.2256 9.67223 10.119 9.72553 10.0657V8.99991H8.92615C8.65969 8.99991 8.44653 8.99991 8.28665 9.0532C8.12678 9.10649 7.9669 9.15978 7.86032 9.26636C7.75374 9.37295 7.64715 9.42624 7.59386 9.58611C7.54057 9.6927 7.54057 9.85257 7.54057 9.95916C7.54057 10.1723 7.59386 10.3322 7.75374 10.4921C7.91361 10.6519 8.18007 10.7052 8.44653 10.7052Z" fill="#F0FFE8"/>
</svg>
