<svg width="16" height="16" viewBox="0 0 16 16" fill="none" xmlns="http://www.w3.org/2000/svg">
<g id="GithubLogo" clip-path="url(#clip0_41_173)">
<path id="Vector" d="M7.48938 3.5C7.19546 3.04005 6.79044 2.66153 6.31168 2.39938C5.83292 2.13722 5.29584 1.99987 4.75 2C4.5072 2.41978 4.36157 2.88865 4.32382 3.37212C4.28608 3.85559 4.35717 4.34137 4.53188 4.79375C4.18984 5.29743 4.00475 5.89118 4 6.5V7C4 7.79565 4.31607 8.55871 4.87868 9.12132C5.44129 9.68393 6.20435 10 7 10H10C10.7956 10 11.5587 9.68393 12.1213 9.12132C12.6839 8.55871 13 7.79565 13 7V6.5C12.9952 5.89118 12.8102 5.29743 12.4681 4.79375C12.6428 4.34137 12.7139 3.85559 12.6762 3.37212C12.6384 2.88865 12.4928 2.41978 12.25 2C11.7042 1.99987 11.1671 2.13722 10.6883 2.39938C10.2096 2.66153 9.80454 3.04005 9.51062 3.5H7.48938Z" stroke="#0AD63A" stroke-linecap="round" stroke-linejoin="round"/>
<path id="Vector_2" d="M6.5 14.5V12C6.5 11.4696 6.71071 10.9609 7.08579 10.5858C7.46086 10.2107 7.96957 10 8.5 10C9.03043 10 9.53914 10.2107 9.91421 10.5858C10.2893 10.9609 10.5 11.4696 10.5 12V14.5" stroke="#0AD63A" stroke-linecap="round" stroke-linejoin="round"/>
<path id="Vector_3" d="M6.5 13H4.5C3.96957 13 3.46086 12.7893 3.08579 12.4142C2.71071 12.0391 2.5 11.5304 2.5 11C2.5 10.4696 2.28929 9.96086 1.91421 9.58579C1.53914 9.21071 1.03043 9 0.5 9" stroke="#0AD63A" stroke-linecap="round" stroke-linejoin="round"/>
</g>
<defs>
<clipPath id="clip0_41_173">
<rect width="16" height="16" fill="white"/>
</clipPath>
</defs>
</svg>
