<svg width="113" height="47" viewBox="0 0 113 47" fill="none" xmlns="http://www.w3.org/2000/svg">
<path d="M24.3036 43.8739C24.3803 44.0446 25.1689 45.2999 24.1268 44.8115C23.8603 44.6866 23.5216 44.5977 23.2613 44.4757C22.5655 44.1496 24.9672 44.0908 25.6769 44.4103C25.7675 44.4511 27.3796 45.2865 27.1659 45.2651C26.6597 45.2142 26.0881 45.1146 25.6304 45.0034C25.3288 44.9301 24.9905 44.8127 24.6253 44.8508C24.4485 44.8692 24.6386 44.9847 24.5974 45.0427C24.3202 45.4323 23.0052 45.2292 22.2615 45.1909C20.4093 45.0957 18.5589 44.964 16.7243 44.8115C16.6485 44.8052 15.2019 44.6761 15.254 44.733C15.3305 44.8167 15.6537 44.8672 15.6914 44.9554C15.7964 45.2016 14.6682 44.8064 14.1558 44.733C13.1142 44.5839 13.2062 44.5537 13.4672 44.9205C13.7024 45.2512 12.5917 44.9131 12.0992 44.842C11.574 44.7663 11.0487 44.6909 10.5264 44.6109C10.2781 44.5729 9.72138 44.3906 9.77261 44.5106C9.82316 44.6291 10.5258 44.7362 10.6939 44.8508C11.4111 45.3396 10.1256 44.906 9.4655 44.8115C8.76535 44.7113 8.27825 44.4581 8.60933 44.8072C8.69801 44.9007 8.87148 45.0191 8.46974 44.9424C7.28697 44.7165 6.19534 44.336 5.04504 44.0701C4.47459 43.9383 2.7656 43.5556 3.37923 43.634C3.95978 43.7082 4.52155 43.7687 5.09158 43.8652C5.84092 43.992 6.85041 44.3667 7.6694 44.3667C7.70636 44.3667 7.28778 44.042 7.25062 44.0178C6.93874 43.8148 6.59008 43.6377 6.36653 43.4073C6.19741 43.2329 10.0153 43.4057 10.3403 43.4334C11.2243 43.5088 13.0714 43.8714 11.364 43.3113C10.8741 43.1506 10.9606 43.104 11.5873 43.1543C12.9631 43.2648 14.2466 43.4806 15.5145 43.7474C15.815 43.8107 18.9674 44.4216 17.3386 44.1225C16.1512 43.9044 15.0134 43.6612 13.8766 43.3898C13.4942 43.2985 12.3532 42.9764 13.5416 43.0758C14.3788 43.1459 15.2474 43.267 16.0357 43.416C16.4403 43.4924 16.7517 43.5356 16.2404 43.3375C15.5162 43.0569 14.6744 42.8352 13.8766 42.6048C13.5301 42.5048 12.5073 42.2873 12.9088 42.256C14.3388 42.1443 16.486 42.5919 17.748 42.8665C18.0328 42.9285 18.5423 42.9955 17.9342 42.8491C16.7727 42.5694 15.5984 42.2979 14.4164 42.0379C14.2876 42.0096 13.106 41.7454 13.8766 41.8635C14.6371 41.98 15.2983 42.1191 15.9799 42.317C16.3792 42.433 18.3368 43.045 16.7802 42.8839C16.3768 42.8422 15.978 42.7924 15.589 42.7269C15.3743 42.6908 14.7949 42.6804 14.9562 42.6048C15.126 42.5252 17.2608 42.8682 17.4875 42.9014C18.6451 43.0707 19.7437 43.3149 20.8935 43.4945C21.7421 43.627 21.1142 43.4794 20.726 43.3985C19.9181 43.2303 18.7189 43.1107 18.0458 42.8403C17.7122 42.7063 18.9213 42.9043 19.3301 42.9799C20.0461 43.1122 20.6597 43.3455 21.3402 43.5119C21.4233 43.5322 22.4106 43.7357 21.9358 43.7474C20.0501 43.7939 18.196 43.7088 16.3149 43.6428C14.3445 43.5736 15.4026 43.8003 16.4079 44.044C16.9256 44.1695 19.1318 44.613 17.3572 44.3754C16.6237 44.2772 15.7362 44.2704 15.0492 44.1094C14.5193 43.9852 16.1835 44.2723 16.7337 44.3754C17.4533 44.5103 18.1548 44.6755 18.8834 44.7984C18.9821 44.8151 19.2861 44.8445 19.1812 44.8464C18.6555 44.8559 18.1129 44.8467 17.5898 44.8377C14.8384 44.7904 12.1039 44.6115 9.36313 44.4975C9.04319 44.4842 5.60017 44.3005 7.58564 44.5368C11.3046 44.9794 14.8207 45.5095 18.3622 46.2071C18.5047 46.2351 20.3496 46.6004 19.8233 46.4731C18.5144 46.1565 17.1374 45.9125 15.7565 45.675C15.0273 45.5496 12.8518 45.3084 13.6161 45.2433C14.608 45.1588 15.8617 45.318 16.8267 45.4003C18.5367 45.546 20.2304 45.7149 21.9544 45.8233C22.2594 45.8424 24.3071 46.0625 23.1829 45.7317C21.397 45.2062 19.495 44.7487 17.6084 44.31C16.4061 44.0304 15.0193 43.8035 13.9139 43.4378C13.4064 43.2699 14.7849 43.4343 14.8445 43.4422C15.8263 43.571 16.7753 43.7337 17.7294 43.9001C17.8017 43.9127 19.1871 44.1234 19.1067 44.1704C18.8054 44.347 16.2626 43.7624 15.9612 43.7038C14.3656 43.3936 12.7094 43.1472 11.1313 42.8185C10.0726 42.598 11.4085 42.7716 11.699 42.8185C17.0902 43.6897 22.4088 44.6653 27.7429 45.6096C28.144 45.6806 29.2396 45.9639 28.9527 45.8146C28.6851 45.6752 27.8287 45.5267 27.5289 45.4526C25.2461 44.8883 22.9508 44.3356 20.6702 43.7692C20.6499 43.7642 17.6264 43.0743 18.9578 43.2503C20.1153 43.4033 21.1919 43.7127 22.2429 43.9786C22.549 44.056 24.007 44.4278 23.8715 44.3885C22.8603 44.0951 22.0009 43.6414 21.0983 43.2808C20.7194 43.1294 18.6652 43.4049 20.4154 43.416C22.0052 43.4261 22.5393 43.4439 24.043 43.6558C25.2277 43.8228 26.9241 43.9489 27.8958 44.3449C28.5561 44.6139 26.319 43.9731 26.0904 43.9088C25.3176 43.6915 26.0774 43.7982 26.4813 43.8739C27.2206 44.0125 27.9848 44.1692 28.4542 44.4844C28.4866 44.5062 28.8312 44.7062 28.752 44.7025C27.918 44.6634 26.8985 44.3672 26.1276 44.2315C24.0288 43.862 20.9371 44.2838 19.8233 42.9799C19.0883 42.9312 17.91 42.1957 18.4553 42.6659C18.6747 42.8551 18.7894 43.0663 18.9951 43.259C19.2714 43.518 17.4185 43.3463 17.3013 43.3375C15.3371 43.1896 13.4539 42.8962 11.5315 42.6659C11.4428 42.6553 9.33946 42.4371 9.39105 42.4914C9.59158 42.7029 10.4924 42.9787 10.8614 43.1194C11.4436 43.3415 12.1027 43.5373 12.5924 43.8085C12.7355 43.8877 10.7469 43.6897 10.545 43.6689C9.19223 43.5294 7.82342 43.383 6.45029 43.2939C5.75786 43.249 7.70081 43.8279 7.93928 43.9044C8.36073 44.0397 8.69596 44.224 9.11186 44.358C9.46477 44.4717 8.25586 44.3772 7.82761 44.3754C6.6959 44.3708 5.57068 44.2969 4.44014 44.2969C3.79614 44.2969 4.64541 44.4964 4.831 44.5499C5.51169 44.7458 6.2642 44.8784 6.93421 45.0819C7.18116 45.1569 7.95438 45.3174 7.6601 45.3174C5.47726 45.3174 3.3156 44.8464 1.0899 44.8464C0.692403 44.8464 1.72083 45.0771 2.07636 45.1604" stroke="#72CA06" stroke-width="0.2" stroke-linecap="round"/>
<path d="M10.7202 27.9062L9.84136 29.3281V31.4062H15.138C15.1753 31.2539 15.2041 31.1079 15.2241 30.9688C17.7221 29.0692 19.2639 29.2156 22.0349 29.6563C20.4939 30.7567 19.185 31.1046 16.3226 31.4062H15.138C14.5602 33.7692 11.9553 37.6737 8.96255 41.5781C8.96255 41.5781 8.19359 41.7969 8.63299 41.0313L10.3906 37.4219C10.571 34.3679 10.2694 33.3745 9.84136 31.4062V29.3281L10.7202 27.9062V25.9375L13.1369 24.9531C15.7792 21.6343 15.6373 19.7828 14.2239 18.5605L12.6975 19.0469C12.1 19.5275 11.9472 19.8505 11.8187 20.4687C11.7669 21.172 11.9993 21.6141 12.1483 22.5469L11.1596 22.2187L10.7202 24.5156C10.3767 24.7545 10.1847 24.7604 9.84136 24.5156C9.21289 23.8186 8.81867 23.4525 9.29211 22.1094L10.3906 20.7969C10.4298 20.5631 10.4051 20.2903 10.3823 20.025C10.0738 20.1293 9.71758 20.1822 9.29211 20.25L8.96255 19.2656L9.62166 14.6719C10.2486 11.8996 10.7311 9.83231 11.3767 8.47629L10.9399 8.65624C10.9399 6.90932 12.6351 3.97978 16.3033 4.38844L17.0916 3.73438C17.9813 1.81992 18.6809 1.09806 20.6069 1C23.819 1.81687 24.6051 2.36671 24.1221 3.51563C23.8999 4.14532 23.8304 4.47998 23.7926 5.04688C23.1713 5.92076 23.04 6.31207 22.8082 7.00289L22.8039 7.01563L22.4743 8.4375C21.7216 8.84586 21.2835 8.84377 20.497 8.76563C19.3119 9.47553 19.2575 9.80627 19.0689 10.4063C22.0591 8.97131 23.0328 8.90639 21.1561 12.5938C18.3761 16.0542 19.0705 17.3707 21.1561 19.4844V14.6719C21.3177 13.5727 21.4459 13.3874 21.8152 14.6719L21.8145 14.7126C21.7865 16.2445 21.7707 17.1159 23.1334 17.2969H24.1221C24.5191 15.9012 24.8882 15.138 25.5502 14.6719V10.0466C25.5502 8.59856 26.1141 6.66828 27.5447 6.89206C27.8193 6.93502 28.0902 7.05263 28.3611 7.24424C28.7873 7.54563 29.034 8.06176 28.9938 8.58221C28.9429 9.24144 28.5992 9.12613 28.1755 8.40667C27.9692 8.05651 27.5702 7.85266 27.1758 7.95082C26.8016 8.04398 26.5389 8.38009 26.5389 8.76578V14.6719L27.4177 15L27.6374 15.9844L27.3078 16.5313V17.2969L26.5389 17.8437V42.7813H25.5502V18.8281L22.1448 20.25L21.0463 20.1406L19.2886 18.2812L23.6827 29.1094L22.8039 29.6563C23.601 30.8969 23.2771 33.7504 22.0349 40.7031C23.5493 40.3837 25.2606 41.4437 24.6998 42.125C24.5467 42.311 24.2244 42.4687 23.6827 42.5625L19.7029 42.7767C19.648 42.7797 19.5933 42.7648 19.549 42.7321C18.8651 42.2267 19.0027 41.7015 19.8379 40.1563V38.8438C19.1869 36.6153 18.9753 35.4746 21.5955 35.5625V34.6875C18.4098 34.0313 20.3871 31.2969 22.2546 32.9375V36.2188C20.5895 39.2082 20.268 40.3285 20.2773 41.7969L24.6998 42.125C25.2606 41.4437 23.5493 40.3837 22.0349 40.7031C23.2771 33.7504 23.601 30.8969 22.8039 29.6563L23.6827 29.1094L19.2886 18.2812L21.0463 20.1406L22.1448 20.25L25.5502 18.8281L25.5502 18.1069L25.5502 17.2969L25.4403 15.9844L25.5502 14.6719C24.8882 15.138 24.5191 15.9012 24.1221 17.2969H23.1334C21.7707 17.1159 21.7865 16.2445 21.8145 14.7126L21.8152 14.6719C21.4459 13.3874 21.3177 13.5727 21.1561 14.6719V19.4844C19.0705 17.3707 18.3761 16.0542 21.1561 12.5938C23.0328 8.90639 22.0591 8.97131 19.0689 10.4063C19.2575 9.80627 19.3119 9.47553 20.497 8.76563C21.2835 8.84377 21.7216 8.84586 22.4743 8.4375L22.8039 7.01563L22.8082 7.00289C23.04 6.31207 23.1713 5.92076 23.7926 5.04688C23.8304 4.47998 23.8999 4.14532 24.1221 3.51563C23.6183 3.96151 23.2025 4.56043 22.4743 5.59375L22.1448 7.34374C21.6155 7.89849 21.1724 8.00951 20.497 7.78125C18.7947 6.7776 18.4704 6.13056 19.0689 4.82813C18.1901 3.73438 19.0689 1.875 20.497 3.73438C22.323 3.03604 23.1921 2.87518 24.1221 3.51563C24.6051 2.36671 23.819 1.81687 20.6069 1C18.6809 1.09806 17.9813 1.81992 17.0916 3.73438L16.3033 4.38844C16.3097 4.38915 16.3162 4.38988 16.3226 4.39062C16.8196 4.6099 17.0051 4.97497 16.9736 5.59141L17.4211 5.40378V5.26563H17.7507L17.4211 5.40378V5.59375C17.5842 7.47488 17.9062 8.39529 18.4098 10.0781C17.521 9.2724 17.1023 8.73316 16.5423 7.5625C16.7898 6.71593 16.9488 6.076 16.9736 5.59141L15.6635 6.14063C15.3732 5.79588 15.3274 5.54372 15.7734 4.82813L16.3033 4.38844C12.6351 3.97978 10.9399 6.90932 10.9399 8.65624L11.3767 8.47629C11.9067 7.36297 12.5466 6.72909 13.4665 6.57812C13.8794 6.73372 14.17 6.96424 14.3448 7.32012C15.1654 7.25427 15.5959 7.51204 16.1029 8.65624C16.5342 10.5217 16.5744 11.7441 16.5423 14.0156C16.2872 14.9599 16.0056 15.3507 15.2241 15.7656C13.6456 15.4711 13.0803 15.9222 12.368 17.2969C12.3732 15.5464 12.5418 14.5133 13.796 12.375C14.537 9.61895 14.7467 8.13827 14.3448 7.32012C14.2747 7.32575 14.2017 7.33374 14.1256 7.34374L11.3767 8.47629C10.7311 9.83231 10.2486 11.8996 9.62166 14.6719L8.96255 19.2656L9.29211 20.25C9.71758 20.1822 10.0738 20.1293 10.3823 20.025C10.3385 19.5156 10.3021 19.0343 10.7406 18.9122C10.9863 18.8438 11.2617 18.8263 11.599 18.8281C11.2582 19.5512 10.8833 19.8558 10.3823 20.025C10.4051 20.2903 10.4298 20.5631 10.3906 20.7969L9.29211 22.1094C8.81867 23.4525 9.21289 23.8186 9.84136 24.5156C10.1847 24.7604 10.3767 24.7545 10.7202 24.5156L11.1596 22.2187L12.1483 22.5469C11.9993 21.6141 11.7669 21.172 11.8187 20.4687C11.9472 19.8505 12.1 19.5275 12.6975 19.0469L14.2239 18.5605C14.1061 18.4587 13.9794 18.3612 13.8448 18.2675C13.6418 18.1263 13.7112 17.7816 13.957 17.755L18.1901 17.2969L14.2239 18.5605C15.6373 19.7828 15.7792 21.6343 13.1369 24.9531L10.7202 25.9375V27.9062Z" fill="#fff"/>
<path d="M5.66699 43H11.8187L12.4778 42.5625L11.8187 41.7969L10.7202 41.25L8.63299 42.3438C8.03467 42.5609 7.72567 42.5395 7.20492 42.3438C6.76095 41.3938 6.71864 40.7066 7.20492 39.0625L9.18225 35.7812L8.96255 34.4688L9.84136 33.4844V31.4062M24.1221 3.51563C24.6051 2.36671 23.819 1.81687 20.6069 1C18.6809 1.09806 17.9813 1.81992 17.0916 3.73438L15.7734 4.82813C15.3274 5.54372 15.3732 5.79588 15.6635 6.14063L17.7507 5.26563H17.4211V5.59375C17.5842 7.47488 17.9062 8.39529 18.4098 10.0781C17.521 9.2724 17.1023 8.73316 16.5423 7.5625C17.1045 5.639 17.2102 4.78228 16.3226 4.39062C12.6411 3.9695 10.9399 6.90625 10.9399 8.65624L14.1256 7.34374C15.0924 7.21668 15.5526 7.41427 16.1029 8.65624C16.5342 10.5217 16.5744 11.7441 16.5423 14.0156C16.2872 14.9599 16.0056 15.3507 15.2241 15.7656C13.6456 15.4711 13.0803 15.9222 12.368 17.2969C12.3732 15.5464 12.5418 14.5133 13.796 12.375C14.8593 8.42011 14.8287 7.09144 13.4665 6.57812C11.4262 6.91298 10.7633 9.62354 9.62166 14.6719L8.96255 19.2656L9.29211 20.25C10.4086 20.0721 11.0484 19.9965 11.599 18.8281C11.2617 18.8263 10.9863 18.8438 10.7406 18.9122C10.0738 19.0979 10.5052 20.1142 10.3906 20.7969V20.7969L9.29211 22.1094C8.81867 23.4525 9.21289 23.8186 9.84136 24.5156C10.1847 24.7604 10.3767 24.7545 10.7202 24.5156L11.1596 22.2187L12.1483 22.5469C11.9993 21.6141 11.7669 21.172 11.8187 20.4687C11.9472 19.8505 12.1 19.5275 12.6975 19.0469L18.1901 17.2969L13.957 17.755C13.7112 17.7816 13.6418 18.1263 13.8448 18.2675C15.5942 19.4843 15.9995 21.3576 13.1369 24.9531L10.7202 25.9375V27.9062L9.84136 29.3281V31.4062M24.1221 3.51563C23.1921 2.87518 22.323 3.03604 20.497 3.73438C19.0689 1.875 18.1901 3.73438 19.0689 4.82813C18.4704 6.13056 18.7947 6.7776 20.497 7.78125C21.1724 8.00951 21.6155 7.89849 22.1448 7.34374L22.4743 5.59375C23.2025 4.56043 23.6183 3.96151 24.1221 3.51563ZM24.1221 3.51563C23.8999 4.14532 23.8304 4.47998 23.7926 5.04688C23.1675 5.92611 23.0384 6.31685 22.8039 7.01563L22.4743 8.4375C21.7216 8.84586 21.2835 8.84377 20.497 8.76563C19.3119 9.47553 19.2575 9.80627 19.0689 10.4063C22.0591 8.97131 23.0328 8.90639 21.1561 12.5938C18.3761 16.0542 19.0705 17.3707 21.1561 19.4844V14.6719C21.3177 13.5727 21.4459 13.3874 21.8152 14.6719C21.7869 16.229 21.7586 17.1143 23.1334 17.2969H24.1221C24.5191 15.9013 24.8882 15.138 25.5502 14.6719M25.5502 14.6719V10.0466C25.5502 8.59856 26.1141 6.66828 27.5447 6.89206C27.8193 6.93502 28.0902 7.05263 28.3611 7.24424C28.7873 7.54563 29.034 8.06176 28.9938 8.58221C28.9429 9.24144 28.5992 9.12613 28.1755 8.40667C27.9692 8.05651 27.5702 7.85266 27.1758 7.95082V7.95082C26.8016 8.04398 26.5389 8.38009 26.5389 8.76578V14.6719M25.5502 14.6719L25.4403 15.9844M26.5389 14.6719L27.4177 15L27.6374 15.9844L27.3078 16.5313M26.5389 14.6719V15.3281M27.3078 16.5313V17.2969L26.5389 17.8437M27.3078 16.5313H26.5389M26.5389 17.8437V42.7813H25.5502V18.8281M26.5389 17.8437L25.5502 18.1069M25.5502 18.8281L22.1448 20.25L21.0463 20.1406L19.2886 18.2813L23.6827 29.1094L22.8039 29.6563C23.601 30.8969 23.2771 33.7504 22.0349 40.7031C23.5493 40.3837 25.2606 41.4437 24.6998 42.125M25.5502 18.8281L25.5502 18.1069M24.6998 42.125C24.5467 42.311 24.2244 42.4687 23.6827 42.5625L19.7029 42.7767C19.648 42.7797 19.5933 42.7648 19.549 42.7321C18.8651 42.2267 19.0027 41.7015 19.8379 40.1563V38.8438C19.1869 36.6153 18.9753 35.4746 21.5955 35.5625V34.6875C18.4098 34.0313 20.3871 31.2969 22.2546 32.9375V36.2188C20.5895 39.2082 20.268 40.3285 20.2773 41.7969L24.6998 42.125ZM9.84136 31.4062H16.3226C19.185 31.1046 20.4939 30.7567 22.0349 29.6563C19.2639 29.2156 17.7221 29.0692 15.2241 30.9688C14.8946 33.2656 12.1483 37.4219 8.96255 41.5781C8.96255 41.5781 8.19359 41.7969 8.63299 41.0313L10.3906 37.4219C10.571 34.3679 10.2694 33.3745 9.84136 31.4062ZM25.5502 18.1069L25.5502 17.2969M25.5502 17.2969H26.429L26.5389 16.5313M25.5502 17.2969L25.4403 15.9844M26.5389 16.5313V15.3281M26.5389 16.5313L25.4403 15.9844M26.5389 15.3281L25.7699 15.7875L25.4403 15.9844" stroke="#fff" stroke-width="0.25"/>
<path d="M47.4805 26.8701C47.4805 26.6423 47.4235 26.444 47.3096 26.2754C47.1956 26.1068 47.0384 25.9632 46.8379 25.8447C46.6419 25.7217 46.4141 25.6191 46.1543 25.5371C45.8945 25.4551 45.6188 25.3844 45.3271 25.3252C44.9717 25.2523 44.6276 25.1657 44.2949 25.0654C43.9622 24.9606 43.666 24.8285 43.4062 24.6689C43.1465 24.5094 42.9391 24.3158 42.7842 24.0879C42.6292 23.8555 42.5518 23.5706 42.5518 23.2334C42.5518 22.9144 42.6315 22.6296 42.791 22.3789C42.9505 22.1283 43.1602 21.9163 43.4199 21.7432C43.6797 21.57 43.9759 21.4401 44.3086 21.3535C44.6413 21.2624 44.9831 21.2168 45.334 21.2168C45.735 21.2168 46.1087 21.2669 46.4551 21.3672C46.806 21.4629 47.1113 21.6064 47.3711 21.7979C47.6354 21.9847 47.8451 22.2148 48 22.4883C48.1549 22.7617 48.2393 23.0739 48.2529 23.4248H47.4326C47.4235 23.1878 47.3597 22.9759 47.2412 22.7891C47.1227 22.5977 46.9655 22.4382 46.7695 22.3105C46.5736 22.1829 46.3503 22.085 46.0996 22.0166C45.8535 21.9482 45.5983 21.9141 45.334 21.9141C45.0879 21.9141 44.8464 21.9414 44.6094 21.9961C44.377 22.0462 44.1673 22.126 43.9805 22.2354C43.7982 22.3402 43.6501 22.4746 43.5361 22.6387C43.4268 22.7982 43.3721 22.9873 43.3721 23.2061C43.3675 23.4385 43.4199 23.6344 43.5293 23.7939C43.6432 23.9489 43.7959 24.0811 43.9873 24.1904C44.1787 24.2952 44.402 24.3841 44.6572 24.457C44.917 24.5254 45.1927 24.5892 45.4844 24.6484C45.8581 24.7259 46.2135 24.8216 46.5508 24.9355C46.8926 25.0449 47.1934 25.1839 47.4531 25.3525C47.7129 25.5166 47.918 25.7194 48.0684 25.9609C48.2188 26.2025 48.2939 26.4919 48.2939 26.8291C48.2939 27.1755 48.2096 27.4785 48.041 27.7383C47.877 27.9935 47.6582 28.2077 47.3848 28.3809C47.1159 28.5495 46.806 28.6748 46.4551 28.7568C46.1087 28.8434 45.751 28.8867 45.3818 28.8867C44.9671 28.8867 44.5752 28.8366 44.2061 28.7363C43.8415 28.6361 43.5179 28.4925 43.2354 28.3057C42.9574 28.1143 42.734 27.8818 42.5654 27.6084C42.3968 27.335 42.3057 27.0251 42.292 26.6787H43.1123C43.1396 26.9704 43.2262 27.2142 43.3721 27.4102C43.5225 27.6061 43.7048 27.7633 43.9189 27.8818C44.1377 27.9958 44.3747 28.0778 44.6299 28.1279C44.8851 28.1735 45.1357 28.1963 45.3818 28.1963C45.6325 28.1963 45.8809 28.1712 46.127 28.1211C46.3776 28.0664 46.6009 27.9867 46.7969 27.8818C46.9974 27.7725 47.1592 27.6357 47.2822 27.4717C47.4098 27.3031 47.4759 27.1025 47.4805 26.8701ZM52.1479 22.7822C52.4076 22.3083 52.754 21.93 53.1869 21.6475C53.6199 21.3649 54.1143 21.2214 54.6703 21.2168C55.0759 21.2168 55.4337 21.2806 55.7436 21.4082C56.058 21.5312 56.3201 21.7135 56.5297 21.9551C56.7439 22.1921 56.9057 22.486 57.015 22.8369C57.129 23.1833 57.1859 23.5798 57.1859 24.0264V28.75H56.3656V24.0264C56.3656 23.6982 56.3269 23.4043 56.2494 23.1445C56.1719 22.8848 56.0535 22.666 55.8939 22.4883C55.739 22.306 55.543 22.167 55.3061 22.0713C55.0691 21.9756 54.7911 21.9277 54.4721 21.9277C54.2123 21.9277 53.9639 21.9688 53.727 22.0508C53.49 22.1328 53.2712 22.2467 53.0707 22.3926C52.8702 22.5384 52.6902 22.7116 52.5307 22.9121C52.3757 23.1081 52.2481 23.3245 52.1479 23.5615V28.75H51.3275V18.25H52.1479V22.7822ZM63.4939 28.8867C62.979 28.8867 62.5096 28.791 62.0857 28.5996C61.6619 28.4082 61.2973 28.1484 60.992 27.8203C60.6912 27.4922 60.4565 27.1094 60.2879 26.6719C60.1238 26.2298 60.0395 25.7604 60.035 25.2637V24.9697C60.0395 24.4411 60.1261 23.9489 60.2947 23.4932C60.4679 23.0374 60.7026 22.641 60.9988 22.3037C61.2951 21.9665 61.6437 21.7021 62.0447 21.5107C62.4458 21.3148 62.8764 21.2168 63.3367 21.2168C63.8289 21.2168 64.2641 21.3057 64.6424 21.4834C65.0206 21.6611 65.3374 21.9049 65.5926 22.2148C65.8523 22.5202 66.0483 22.8779 66.1805 23.2881C66.3172 23.6982 66.3878 24.138 66.3924 24.6074V25.1064H60.8553V25.2637C60.8598 25.651 60.9259 26.0225 61.0535 26.3779C61.1811 26.7288 61.3611 27.0387 61.5936 27.3076C61.826 27.5765 62.1063 27.793 62.4344 27.957C62.7625 28.1165 63.1271 28.1963 63.5281 28.1963C63.9839 28.2008 64.3963 28.1165 64.7654 27.9434C65.1346 27.7702 65.449 27.5195 65.7088 27.1914L66.2283 27.5811C66.0916 27.7725 65.9298 27.9502 65.743 28.1143C65.5561 28.2738 65.3465 28.4105 65.1141 28.5244C64.8862 28.6383 64.6355 28.7272 64.3621 28.791C64.0887 28.8548 63.7993 28.8867 63.4939 28.8867ZM63.3367 21.9141C63.004 21.9141 62.6987 21.9779 62.4207 22.1055C62.1427 22.2285 61.8989 22.4017 61.6893 22.625C61.4796 22.8483 61.3064 23.1126 61.1697 23.418C61.033 23.7188 60.9396 24.0492 60.8895 24.4092H65.5721V24.3203C65.563 24.015 65.506 23.7188 65.4012 23.4316C65.3009 23.14 65.1551 22.8825 64.9637 22.6592C64.7768 22.4359 64.5467 22.2559 64.2732 22.1191C63.9998 21.9824 63.6876 21.9141 63.3367 21.9141ZM75.3254 25.127C75.3254 25.6055 75.2661 26.0726 75.1477 26.5283C75.0337 26.9795 74.856 27.3805 74.6145 27.7314C74.3775 28.0778 74.0767 28.3581 73.7121 28.5723C73.3475 28.7819 72.9146 28.8867 72.4133 28.8867C71.953 28.8867 71.5314 28.7979 71.1486 28.6201C70.7658 28.4424 70.4445 28.1849 70.1848 27.8477V31.5938H69.3645V21.3535H70.1301L70.1643 22.3652C70.424 22.0007 70.743 21.7181 71.1213 21.5176C71.4995 21.3171 71.9257 21.2168 72.3996 21.2168C72.9055 21.2168 73.343 21.3216 73.7121 21.5312C74.0812 21.7363 74.3843 22.0143 74.6213 22.3652C74.8583 22.7116 75.0337 23.1126 75.1477 23.5684C75.2661 24.0195 75.3254 24.4912 75.3254 24.9834V25.127ZM74.5051 24.9834C74.5051 24.6143 74.4641 24.2474 74.382 23.8828C74.3 23.5182 74.1678 23.1924 73.9855 22.9053C73.8033 22.6136 73.5663 22.3789 73.2746 22.2012C72.9875 22.0189 72.6343 21.9277 72.215 21.9277C71.9781 21.9277 71.7548 21.9619 71.5451 22.0303C71.34 22.0941 71.1509 22.1875 70.9777 22.3105C70.8091 22.429 70.6564 22.5726 70.5197 22.7412C70.3876 22.9053 70.2759 23.0876 70.1848 23.2881V26.9521C70.3762 27.335 70.6496 27.638 71.0051 27.8613C71.3605 28.0846 71.7684 28.1963 72.2287 28.1963C72.6434 28.1963 72.9943 28.1051 73.2814 27.9229C73.5731 27.7406 73.8078 27.5059 73.9855 27.2188C74.1678 26.9271 74.3 26.599 74.382 26.2344C74.4641 25.8652 74.5051 25.4961 74.5051 25.127V24.9834ZM79.1725 22.7822C79.4322 22.3083 79.7786 21.93 80.2115 21.6475C80.6445 21.3649 81.1389 21.2214 81.6949 21.2168C82.1005 21.2168 82.4583 21.2806 82.7682 21.4082C83.0826 21.5312 83.3447 21.7135 83.5543 21.9551C83.7685 22.1921 83.9303 22.486 84.0396 22.8369C84.1536 23.1833 84.2105 23.5798 84.2105 24.0264V28.75H83.3902V24.0264C83.3902 23.6982 83.3515 23.4043 83.274 23.1445C83.1966 22.8848 83.0781 22.666 82.9186 22.4883C82.7636 22.306 82.5676 22.167 82.3307 22.0713C82.0937 21.9756 81.8157 21.9277 81.4967 21.9277C81.2369 21.9277 80.9885 21.9688 80.7516 22.0508C80.5146 22.1328 80.2958 22.2467 80.0953 22.3926C79.8948 22.5384 79.7148 22.7116 79.5553 22.9121C79.4003 23.1081 79.2727 23.3245 79.1725 23.5615V28.75H78.3521V18.25H79.1725V22.7822ZM90.5186 28.8867C90.0036 28.8867 89.5342 28.791 89.1104 28.5996C88.6865 28.4082 88.3219 28.1484 88.0166 27.8203C87.7158 27.4922 87.4811 27.1094 87.3125 26.6719C87.1484 26.2298 87.0641 25.7604 87.0596 25.2637V24.9697C87.0641 24.4411 87.1507 23.9489 87.3193 23.4932C87.4925 23.0374 87.7272 22.641 88.0234 22.3037C88.3197 21.9665 88.6683 21.7021 89.0693 21.5107C89.4704 21.3148 89.901 21.2168 90.3613 21.2168C90.8535 21.2168 91.2887 21.3057 91.667 21.4834C92.0452 21.6611 92.362 21.9049 92.6172 22.2148C92.877 22.5202 93.0729 22.8779 93.2051 23.2881C93.3418 23.6982 93.4124 24.138 93.417 24.6074V25.1064H87.8799V25.2637C87.8844 25.651 87.9505 26.0225 88.0781 26.3779C88.2057 26.7288 88.3857 27.0387 88.6182 27.3076C88.8506 27.5765 89.1309 27.793 89.459 27.957C89.7871 28.1165 90.1517 28.1963 90.5527 28.1963C91.0085 28.2008 91.4209 28.1165 91.79 27.9434C92.1592 27.7702 92.4736 27.5195 92.7334 27.1914L93.2529 27.5811C93.1162 27.7725 92.9544 27.9502 92.7676 28.1143C92.5807 28.2738 92.3711 28.4105 92.1387 28.5244C91.9108 28.6383 91.6602 28.7272 91.3867 28.791C91.1133 28.8548 90.8239 28.8867 90.5186 28.8867ZM90.3613 21.9141C90.0286 21.9141 89.7233 21.9779 89.4453 22.1055C89.1673 22.2285 88.9235 22.4017 88.7139 22.625C88.5042 22.8483 88.3311 23.1126 88.1943 23.418C88.0576 23.7188 87.9642 24.0492 87.9141 24.4092H92.5967V24.3203C92.5876 24.015 92.5306 23.7188 92.4258 23.4316C92.3255 23.14 92.1797 22.8825 91.9883 22.6592C91.8014 22.4359 91.5713 22.2559 91.2979 22.1191C91.0244 21.9824 90.7122 21.9141 90.3613 21.9141ZM101.263 21.2168C101.468 21.2168 101.673 21.2305 101.878 21.2578C102.083 21.2806 102.254 21.3148 102.391 21.3604L102.288 22.1465C102.097 22.1055 101.906 22.0736 101.714 22.0508C101.523 22.028 101.327 22.0166 101.126 22.0166C100.434 22.0166 99.8458 22.1807 99.3627 22.5088C98.8796 22.8369 98.5401 23.3405 98.3441 24.0195L98.351 28.75H97.5033V21.3535H98.2895L98.3441 22.6387V22.7891C98.6449 22.3014 99.0437 21.9186 99.5404 21.6406C100.037 21.3581 100.611 21.2168 101.263 21.2168ZM105.131 24.9834C105.131 24.4912 105.192 24.0195 105.315 23.5684C105.438 23.1126 105.621 22.7116 105.862 22.3652C106.108 22.0143 106.414 21.7363 106.778 21.5312C107.147 21.3216 107.58 21.2168 108.077 21.2168C108.546 21.2168 108.966 21.3171 109.335 21.5176C109.708 21.7181 110.021 21.9984 110.271 22.3584V18.25H111.085V28.75H110.319L110.285 27.7861C110.025 28.1416 109.706 28.415 109.328 28.6064C108.95 28.7933 108.528 28.8867 108.063 28.8867C107.576 28.8867 107.147 28.7819 106.778 28.5723C106.414 28.3581 106.108 28.0778 105.862 27.7314C105.621 27.3805 105.438 26.9795 105.315 26.5283C105.192 26.0726 105.131 25.6055 105.131 25.127V24.9834ZM105.958 25.127C105.958 25.4961 105.997 25.863 106.074 26.2275C106.156 26.5921 106.286 26.9202 106.464 27.2119C106.641 27.499 106.874 27.7314 107.161 27.9092C107.448 28.0869 107.799 28.1758 108.214 28.1758C108.446 28.1758 108.665 28.1462 108.87 28.0869C109.08 28.0277 109.271 27.9434 109.444 27.834C109.622 27.7201 109.779 27.5856 109.916 27.4307C110.057 27.2712 110.176 27.0934 110.271 26.8975V23.3154C110.18 23.1104 110.066 22.9235 109.929 22.7549C109.797 22.5863 109.645 22.4404 109.471 22.3174C109.298 22.1943 109.107 22.0986 108.897 22.0303C108.688 21.9619 108.464 21.9277 108.227 21.9277C107.808 21.9277 107.455 22.0189 107.168 22.2012C106.881 22.3789 106.646 22.6136 106.464 22.9053C106.286 23.1924 106.156 23.5182 106.074 23.8828C105.997 24.2474 105.958 24.6143 105.958 24.9834V25.127Z" fill="#fff"/>
</svg>
