<svg width="40" height="73" viewBox="0 0 40 73" fill="none" xmlns="http://www.w3.org/2000/svg">
<path d="M7.37367 69.8731C7.2696 70.0194 6.1994 71.0954 7.61364 70.6768C7.97529 70.5698 8.43497 70.4935 8.78821 70.389C9.7326 70.1095 6.47309 70.0591 5.50989 70.3329C5.387 70.3678 3.19907 71.0839 3.48911 71.0656C4.17609 71.022 4.9519 70.9366 5.57304 70.8413C5.98232 70.7785 6.44149 70.6778 6.93706 70.7104C7.17707 70.7262 6.91904 70.8253 6.97495 70.8749C7.35109 71.2089 9.13578 71.0348 10.1451 71.002C12.6588 70.9203 15.1701 70.8075 17.6598 70.6768C17.7628 70.6714 19.726 70.5607 19.6553 70.6095C19.5515 70.6812 19.1128 70.7245 19.0617 70.8002C18.9191 71.0112 20.4503 70.6724 21.1457 70.6095C22.5593 70.4817 22.4344 70.4558 22.0803 70.7702C21.7611 71.0537 23.2684 70.7638 23.9369 70.703C24.6495 70.6381 25.3625 70.5734 26.0713 70.5048C26.4083 70.4723 27.1638 70.316 27.0943 70.4189C27.0257 70.5204 26.0721 70.6122 25.844 70.7104C24.8707 71.1294 26.6153 70.7578 27.5111 70.6768C28.4613 70.5909 29.1224 70.3738 28.6731 70.6731C28.5527 70.7532 28.3173 70.8547 28.8625 70.7889C30.4677 70.5954 31.9492 70.2692 33.5103 70.0413C34.2845 69.9283 36.6038 69.6003 35.771 69.6675C34.9832 69.7311 34.2208 69.783 33.4471 69.8656C32.4302 69.9743 31.0602 70.2955 29.9487 70.2955C29.8985 70.2955 30.4666 70.0172 30.517 69.9965C30.9403 69.8225 31.4135 69.6707 31.7169 69.4731C31.9464 69.3237 26.765 69.4718 26.3239 69.4956C25.1242 69.5601 22.6174 69.871 24.9346 69.3909C25.5994 69.2532 25.4821 69.2132 24.6315 69.2563C22.7644 69.3511 21.0225 69.536 19.3017 69.7647C18.894 69.8189 14.6156 70.3426 16.8262 70.0862C18.4377 69.8993 19.9819 69.6908 21.5246 69.4582C22.0437 69.3799 23.5921 69.1038 21.9792 69.1891C20.8431 69.2491 19.6642 69.353 18.5944 69.4806C18.0453 69.5462 17.6227 69.5832 18.3166 69.4133C19.2994 69.1728 20.4419 68.9828 21.5246 68.7854C21.9948 68.6996 23.3829 68.5132 22.8381 68.4863C20.8973 68.3906 17.9832 68.7743 16.2705 69.0096C15.8841 69.0627 15.1926 69.1202 16.0179 68.9947C17.5942 68.7549 19.1878 68.5223 20.792 68.2994C20.9668 68.2751 22.5705 68.0487 21.5246 68.1499C20.4925 68.2498 19.5952 68.369 18.6702 68.5386C18.1283 68.638 15.4714 69.1626 17.584 69.0246C18.1315 68.9888 18.6727 68.9461 19.2007 68.89C19.492 68.8591 20.2784 68.8501 20.0595 68.7854C19.8289 68.7171 16.9317 69.0111 16.6242 69.0395C15.0531 69.1846 13.5622 69.394 12.0016 69.5479C10.8499 69.6615 11.7022 69.535 12.229 69.4657C13.3254 69.3214 14.9529 69.2189 15.8664 68.9872C16.3192 68.8723 14.6783 69.0421 14.1235 69.1068C13.1518 69.2202 12.319 69.4202 11.3954 69.5629C11.2827 69.5803 9.94273 69.7547 10.5871 69.7647C13.1463 69.8046 15.6626 69.7316 18.2155 69.675C20.8897 69.6157 19.4536 69.81 18.0892 70.0189C17.3867 70.1265 14.3925 70.5067 16.801 70.303C17.7964 70.2188 19.0008 70.2129 19.9332 70.075C20.6524 69.9685 18.3938 70.2146 17.6472 70.303C16.6706 70.4186 15.7184 70.5602 14.7297 70.6656C14.5957 70.6799 14.1832 70.7051 14.3255 70.7067C15.0389 70.7148 15.7754 70.7069 16.4852 70.6992C20.2193 70.6587 23.9304 70.5053 27.65 70.4077C28.0842 70.3963 32.7569 70.2388 30.0623 70.4413C25.0152 70.8207 20.2433 71.2751 15.437 71.873C15.2437 71.897 12.7398 72.2101 13.4541 72.101C15.2305 71.8296 17.0993 71.6205 18.9733 71.4169C19.9629 71.3094 22.9154 71.1027 21.8782 71.0469C20.5321 70.9744 18.8306 71.111 17.5209 71.1814C15.2001 71.3063 12.9016 71.4511 10.5618 71.544C10.148 71.5604 7.36897 71.7491 8.89469 71.4655C11.3183 71.0151 13.8997 70.623 16.46 70.2469C18.0917 70.0073 19.9738 69.8127 21.474 69.4993C22.1628 69.3554 20.292 69.4963 20.211 69.5031C18.8786 69.6135 17.5907 69.7529 16.2958 69.8955C16.1978 69.9063 14.3175 70.0869 14.4266 70.1273C14.8356 70.2786 18.2865 69.7776 18.6955 69.7273C20.8609 69.4614 23.1086 69.2502 25.2504 68.9685C26.6872 68.7795 24.8742 68.9283 24.4799 68.9685C17.1633 69.7152 9.94517 70.5515 2.70606 71.3609C2.16165 71.4217 0.674864 71.6646 1.06418 71.5365C1.42735 71.4171 2.58963 71.2898 2.99655 71.2263C6.09461 70.7426 9.20969 70.2688 12.3048 69.7834C12.3323 69.7791 16.4356 69.1877 14.6287 69.3386C13.0577 69.4697 11.5967 69.735 10.1703 69.9628C9.75498 70.0292 7.77624 70.3479 7.96008 70.3142C9.33248 70.0628 10.4987 69.6738 11.7238 69.3647C12.238 69.235 15.0257 69.4711 12.6506 69.4806C10.4929 69.4893 9.76812 69.5045 7.72731 69.6862C6.11954 69.8293 3.81723 69.9374 2.49854 70.2768C1.6025 70.5074 4.63847 69.9581 4.94874 69.903C5.99749 69.7168 4.96644 69.8082 4.41828 69.8731C3.41491 69.9919 2.37776 70.1262 1.74075 70.3964C1.69674 70.4151 1.22906 70.5865 1.3366 70.5833C2.46848 70.5498 3.85206 70.296 4.89822 70.1796C7.74662 69.8629 11.9425 70.2245 13.4541 69.1068C14.4516 69.0651 16.0507 68.4347 15.3107 68.8377C15.0129 68.9998 14.8572 69.1809 14.5781 69.3461C14.2031 69.568 16.7177 69.4209 16.8768 69.4133C19.5426 69.2865 22.0982 69.0351 24.7073 68.8377C24.8277 68.8286 27.6822 68.6415 27.6121 68.6882C27.34 68.8694 26.1175 69.1058 25.6166 69.2264C24.8266 69.4168 23.9321 69.5846 23.2675 69.817C23.0733 69.885 25.7721 69.7153 26.046 69.6974C27.882 69.5778 29.7396 69.4523 31.6032 69.376C32.5429 69.3375 29.906 69.8337 29.5824 69.8993C29.0104 70.0153 28.5555 70.1732 27.991 70.288C27.5121 70.3855 29.1528 70.3045 29.734 70.303C31.2698 70.299 32.7969 70.2357 34.3312 70.2357C35.2052 70.2357 34.0527 70.4067 33.8008 70.4525C32.877 70.6205 31.8557 70.7341 30.9464 70.9086C30.6113 70.9728 29.5619 71.1104 29.9613 71.1104C32.9237 71.1104 35.8574 70.7067 38.878 70.7067C39.4175 70.7067 38.0217 70.9044 37.5392 70.9758" stroke="#72CA06" stroke-width="0.2" stroke-linecap="round"/>
<path d="M10.0129 45.0791L8.61936 47.4151V50.8291H17.0184C17.0775 50.5788 17.1232 50.339 17.1549 50.1104C21.116 46.9897 23.5609 47.2302 27.9549 47.9541C25.5113 49.762 23.4356 50.3336 18.8968 50.8291H17.0184C16.1021 54.7111 11.9714 61.1256 7.22581 67.5401C7.22581 67.5401 6.00646 67.8994 6.70323 66.6416L9.49033 60.7119C9.77638 55.6947 9.2981 54.0626 8.61936 50.8291V47.4151L10.0129 45.0791V41.8447L13.8452 40.2276C18.0351 34.7752 17.81 31.7335 15.5688 29.7255L13.1484 30.5244C12.2009 31.3141 11.9586 31.8447 11.7549 32.8604C11.6727 34.0157 12.0413 34.7421 12.2774 36.2744L10.7097 35.7354L10.0129 39.5088C9.46826 39.9012 9.1638 39.911 8.61936 39.5088C7.62278 38.3638 6.99766 37.7622 7.74839 35.5557L9.49033 33.3994C9.55206 33.0182 9.54786 32.7367 9.47728 32.5222C9.4397 32.4079 9.39244 32.2919 9.34266 32.1759C8.88502 32.3186 8.36213 32.3997 7.74839 32.501L7.22581 30.8838L8.27098 23.3369C9.26507 18.7825 10.0303 15.3862 11.0539 13.1585L10.3613 13.4541C10.3613 10.5842 13.0495 5.77137 18.8661 6.44272L20.1161 5.3682C21.527 2.22301 22.6363 1.03711 25.6904 0.876007C30.7839 2.21801 32.0305 3.12131 31.2646 5.00882C30.9122 6.04332 30.8019 6.59312 30.742 7.52445C29.7569 8.9601 29.5486 9.60298 29.181 10.7379L29.1742 10.7588L28.6516 13.0948C27.458 13.7656 26.7633 13.7622 25.5162 13.6338C23.6369 14.8001 23.5506 15.3435 23.2516 16.3291C27.9932 13.9717 29.5373 13.8651 26.5613 19.9229C22.1531 25.6079 23.2542 27.7707 26.5613 31.2432V23.3369C26.8176 21.5311 27.0209 21.2267 27.6065 23.3369L27.6053 23.4039C27.561 25.9205 27.5358 27.3522 29.6968 27.6494H31.2646C31.8941 25.3566 32.4793 24.1027 33.5291 23.3369V15.6393C33.5291 13.3192 34.4042 10.1828 36.6941 10.5562C37.1364 10.6283 37.5726 10.827 38.009 11.151C38.6704 11.6421 39.0413 12.4569 38.9932 13.2792C38.9263 14.4249 38.3713 14.244 37.6856 13.0328C37.3644 12.4655 36.7222 12.1365 36.091 12.2993C35.5057 12.4502 35.0968 12.978 35.0968 13.5824V23.3369L36.4904 23.876L36.8388 25.4932L36.3162 26.3916V27.6494L35.0968 28.5479V69.5166H33.5291V30.1651L28.1291 32.501L26.3871 32.3213L23.6 29.2666L30.5678 47.0557L29.1742 47.9541C30.4382 49.9923 29.9246 54.6802 27.9549 66.1026C30.3563 65.5777 33.0698 67.3192 32.1805 68.4385C31.9378 68.744 31.4268 69.0032 30.5678 69.1573L24.2099 69.5118C24.1534 69.5149 24.0967 69.4986 24.0513 69.4648C22.9235 68.6254 23.1313 67.7723 24.471 65.2041V63.0479C23.4386 59.3869 23.1032 57.5129 27.2581 57.6573V56.2198C22.2065 55.1416 25.342 50.6494 28.3033 53.3448V58.7354C25.6629 63.6466 25.1531 65.4872 25.1678 67.8994L32.1805 68.4385C33.0698 67.3192 30.3563 65.5777 27.9549 66.1026C29.9246 54.6802 30.4382 49.9923 29.1742 47.9541L30.5678 47.0557L23.6 29.2666L26.3871 32.3213L28.1291 32.501L33.5291 30.1651V69.5166H35.0968V28.5479H34.0517L33.8775 27.8291V26.4994V25.1698L33.3549 25.4932L33.5291 23.3369C32.4793 24.1027 31.8941 25.3566 31.2646 27.6494H29.6968C27.5358 27.3522 27.561 25.9205 27.6053 23.4039L27.6065 23.3369C27.0209 21.2267 26.8176 21.5311 26.5613 23.3369V31.2432C23.2542 27.7707 22.1531 25.6079 26.5613 19.9229C29.5373 13.8651 27.9932 13.9717 23.2516 16.3291C23.5506 15.3435 23.6369 14.8001 25.5162 13.6338C26.7633 13.7622 27.458 13.7656 28.6516 13.0948L29.1742 10.7588L29.181 10.7379C29.5486 9.60298 29.7569 8.9601 30.742 7.52445C30.8019 6.59312 30.9122 6.04332 31.2646 5.00882C30.4656 5.74135 29.8063 6.72528 28.6516 8.42288L28.1291 11.2979C27.2898 12.2092 26.5872 12.3916 25.5162 12.0166C22.8168 10.3678 22.3025 9.30478 23.2516 7.16507C21.8581 5.3682 23.2516 2.31351 25.5162 5.3682C28.4117 4.22093 29.7898 3.95666 31.2646 5.00882C32.0305 3.12131 30.7839 2.21801 25.6904 0.876007C22.6363 1.03711 21.527 2.22301 20.1161 5.3682L18.8661 6.44272C18.8763 6.4439 18.8866 6.4451 18.8968 6.44631C19.6848 6.80656 19.9791 7.40631 19.929 8.41904L20.6387 8.11079V7.88382H21.1613L20.6387 8.11079V8.42288C20.8974 11.5133 21.4079 13.0254 22.2065 15.7901C20.7971 14.4664 20.1331 13.5805 19.2452 11.6573C19.6376 10.2665 19.8897 9.21515 19.929 8.41904L17.8516 9.32132C17.3913 8.75496 17.3186 8.3407 18.0258 7.16507L18.8661 6.44272C13.0495 5.77137 10.3613 10.5842 10.3613 13.4541L11.0539 13.1585C11.8944 11.3295 12.9091 10.2881 14.3678 10.0401C15.0225 10.2957 15.4833 10.6744 15.7605 11.2591C17.0618 11.1509 17.7444 11.5744 18.5484 13.4541C19.2322 16.5188 19.296 18.527 19.2452 22.2588C18.8406 23.8102 18.3941 24.4522 17.1549 25.1338C14.6517 24.65 13.7554 25.391 12.6258 27.6494C12.6341 24.7736 12.9015 23.0765 14.8903 19.5635C16.0653 15.0357 16.3979 12.6032 15.7605 11.2591C15.6493 11.2683 15.5336 11.2814 15.4129 11.2979L11.0539 13.1585C10.0303 15.3862 9.26507 18.7825 8.27098 23.3369L7.22581 30.8838L7.74839 32.501C8.36213 32.3997 8.88502 32.3186 9.34266 32.1759C9.09869 31.6074 8.79387 31.0398 9.26744 30.6889C9.8632 30.2475 10.4912 30.1599 11.4065 30.1651C10.836 31.4191 10.2052 31.9069 9.34266 32.1759C9.39244 32.2919 9.4397 32.4079 9.47728 32.5222C9.54786 32.7367 9.55206 33.0182 9.49033 33.3994L7.74839 35.5557C6.99766 37.7622 7.62278 38.3638 8.61936 39.5088C9.1638 39.911 9.46826 39.9012 10.0129 39.5088L10.7097 35.7354L12.2774 36.2744C12.0413 34.7421 11.6727 34.0157 11.7549 32.8604C11.9586 31.8447 12.2009 31.3141 13.1484 30.5244L15.5688 29.7255C15.2602 29.4489 14.9132 29.192 14.5344 28.951C14.3277 28.8196 14.395 28.4862 14.6384 28.4589L21.8581 27.6494L15.5688 29.7255C17.81 31.7335 18.0351 34.7752 13.8452 40.2276L10.0129 41.8447V45.0791Z" fill="#fff"/>
<path d="M2 69.876H11.7549L12.8 69.1573L11.7549 67.8994L10.0129 67.001L6.70323 68.7979C5.75446 69.1546 5.26447 69.1195 4.43871 68.7979C3.7347 67.2372 3.66762 66.1083 4.43871 63.4073L7.5742 58.0166L7.22581 55.8604L8.61936 54.2432V50.8291M31.2646 5.00882C32.0305 3.12131 30.7839 2.21801 25.6904 0.876007C22.6363 1.03711 21.527 2.22301 20.1161 5.3682L18.0258 7.16507C17.3186 8.3407 17.3913 8.75496 17.8516 9.32132L21.1613 7.88382H20.6387V8.42288C20.8974 11.5133 21.4079 13.0254 22.2065 15.7901C20.7971 14.4664 20.1331 13.5805 19.2452 11.6573C20.1367 8.49722 20.3042 7.08976 18.8968 6.44631C13.0589 5.75447 10.3613 10.5791 10.3613 13.4541L15.4129 11.2979C16.946 11.0891 17.6757 11.4137 18.5484 13.4541C19.2322 16.5188 19.296 18.527 19.2452 22.2588C18.8406 23.8102 18.3941 24.4522 17.1549 25.1338C14.6517 24.65 13.7554 25.391 12.6258 27.6494C12.6341 24.7736 12.9015 23.0765 14.8903 19.5635C16.5764 13.0662 16.5278 10.8834 14.3678 10.0401C11.1324 10.5902 10.0812 15.0432 8.27098 23.3369L7.22581 30.8838L7.74839 32.501C9.51891 32.2087 10.5334 32.0845 11.4065 30.1651C10.4912 30.1599 9.8632 30.2475 9.26744 30.6889C8.69723 31.1114 9.2555 31.848 9.47728 32.5222C9.54786 32.7367 9.55206 33.0182 9.49033 33.3994L7.74839 35.5557C6.99766 37.7622 7.62278 38.3638 8.61936 39.5088C9.1638 39.911 9.46826 39.9012 10.0129 39.5088L10.7097 35.7354L12.2774 36.2744C12.0413 34.7421 11.6727 34.0157 11.7549 32.8604C11.9586 31.8447 12.2009 31.3141 13.1484 30.5244L21.8581 27.6494L14.6384 28.4589C14.395 28.4862 14.3277 28.8196 14.5344 28.951C17.6642 30.9413 18.6122 34.0243 13.8452 40.2276L10.0129 41.8447V45.0791L8.61936 47.4151V50.8291M31.2646 5.00882C29.7898 3.95666 28.4117 4.22093 25.5162 5.3682C23.2516 2.31351 21.8581 5.36819 23.2516 7.16507C22.3025 9.30478 22.8168 10.3678 25.5162 12.0166C26.5872 12.3916 27.2898 12.2092 28.1291 11.2979L28.6516 8.42288C29.8063 6.72528 30.4656 5.74135 31.2646 5.00882ZM31.2646 5.00882C30.9122 6.04332 30.8019 6.59312 30.742 7.52445C29.7509 8.9689 29.5461 9.61083 29.1742 10.7588L28.6516 13.0948C27.458 13.7656 26.7633 13.7622 25.5162 13.6338C23.6369 14.8001 23.5506 15.3435 23.2516 16.3291C27.9932 13.9717 29.5373 13.8651 26.5613 19.9229C22.1531 25.6079 23.2542 27.7707 26.5613 31.2432V23.3369C26.8176 21.5311 27.0209 21.2267 27.6065 23.3369C27.5616 25.8951 27.5167 27.3495 29.6968 27.6494H31.2646C31.8941 25.3566 32.4793 24.1027 33.5291 23.3369M33.5291 23.3369V15.6393C33.5291 13.3192 34.4042 10.1828 36.6941 10.5562C37.1364 10.6283 37.5726 10.827 38.009 11.151C38.6704 11.6421 39.0413 12.4569 38.9932 13.2792C38.9263 14.4249 38.3713 14.244 37.6856 13.0328C37.3644 12.4655 36.7222 12.1365 36.091 12.2993V12.2993C35.5057 12.4502 35.0968 12.978 35.0968 13.5824V23.3369M33.5291 23.3369L33.3549 25.4932L33.8775 25.1698M35.0968 23.3369L36.4904 23.876L36.8388 25.4932L36.3162 26.3916M35.0968 23.3369V24.4151M36.3162 26.3916V27.6494L35.0968 28.5479M36.3162 26.3916H35.0968M35.0968 28.5479V69.5166H33.5291V30.1651L28.1291 32.501L26.3871 32.3213L23.6 29.2666L30.5678 47.0557L29.1742 47.9541C30.4382 49.9923 29.9246 54.6802 27.9549 66.1026C30.3563 65.5777 33.0698 67.3192 32.1805 68.4385M35.0968 28.5479H34.0517L33.8775 27.8291M32.1805 68.4385C31.9378 68.744 31.4268 69.0032 30.5678 69.1573L24.2099 69.5118C24.1534 69.5149 24.0967 69.4986 24.0513 69.4648C22.9235 68.6254 23.1313 67.7723 24.471 65.2041V63.0479C23.4386 59.3869 23.1032 57.5129 27.2581 57.6573V56.2198C22.2065 55.1416 25.342 50.6494 28.3033 53.3448V58.7354C25.6629 63.6466 25.1531 65.4872 25.1678 67.8994L32.1805 68.4385ZM8.61936 50.8291H18.8968C23.4356 50.3336 25.5113 49.762 27.9549 47.9541C23.5609 47.2302 21.116 46.9897 17.1549 50.1104C16.6323 53.8838 12.2774 60.712 7.22581 67.5401C7.22581 67.5401 6.00646 67.8994 6.70323 66.6416L9.49033 60.7119C9.77638 55.6947 9.2981 54.0626 8.61936 50.8291ZM33.8775 27.8291L34.9226 27.6494L35.0968 26.3916M33.8775 27.8291V26.4994M35.0968 26.3916V24.4151M35.0968 26.3916L33.8775 26.4994M35.0968 24.4151L33.8775 25.1698M33.8775 25.1698V26.4994" stroke="#fff" stroke-width="0.5"/>
</svg>
