<?xml version="1.0" standalone="no"?>
<!DOCTYPE svg PUBLIC "-//W3C//DTD SVG 20010904//EN"
 "http://www.w3.org/TR/2001/REC-SVG-20010904/DTD/svg10.dtd">
<svg version="1.0" xmlns="http://www.w3.org/2000/svg"
 width="1163.000000pt" height="1163.000000pt" viewBox="0 0 1163.000000 1163.000000"
 preserveAspectRatio="xMidYMid meet">
<metadata>
Created by potrace 1.14, written by Peter Selinger 2001-2017
</metadata>
<g transform="translate(0.000000,1163.000000) scale(0.100000,-0.100000)"
fill="#000000" stroke="none">
<path d="M6487 11540 c-187 -32 -346 -117 -478 -257 -84 -89 -140 -175 -228
-350 -58 -114 -85 -156 -140 -215 l-68 -72 -104 25 c-239 56 -431 21 -674
-123 -277 -163 -493 -386 -629 -649 -76 -145 -106 -236 -113 -335 -8 -120 2
-171 37 -189 l29 -15 -25 -61 c-107 -263 -221 -664 -378 -1329 -64 -273 -65
-278 -70 -560 -4 -224 -23 -400 -73 -685 -34 -196 -37 -343 -7 -400 24 -47 89
-85 144 -85 19 0 80 11 135 24 55 14 101 24 101 23 1 -1 -5 -27 -13 -57 -18
-72 -40 -107 -183 -301 -67 -89 -130 -180 -141 -201 -25 -48 -49 -142 -49
-189 0 -141 154 -372 323 -484 64 -43 77 -41 130 13 49 50 76 132 111 327 29
160 64 302 76 310 4 2 47 -20 95 -50 98 -60 98 -60 123 14 21 60 9 203 -34
410 -9 42 -16 107 -16 146 2 185 191 394 454 500 140 56 135 56 208 -21 129
-138 176 -293 167 -549 -10 -295 -95 -554 -264 -807 -175 -261 -288 -344 -585
-429 -164 -47 -189 -58 -241 -107 -68 -65 -80 -154 -52 -377 20 -162 16 -172
-94 -282 -69 -69 -96 -104 -124 -163 -61 -130 -85 -295 -68 -475 7 -73 5 -145
-5 -265 -16 -174 -14 -232 13 -372 15 -81 15 -89 -1 -132 -12 -32 -35 -61 -73
-94 -123 -105 -146 -128 -170 -177 -40 -77 -35 -141 16 -253 33 -72 41 -100
41 -148 0 -74 -26 -120 -184 -328 -240 -318 -311 -437 -375 -631 -49 -150 -62
-228 -68 -412 -5 -155 -3 -178 16 -241 55 -184 233 -261 446 -195 84 27 247
109 330 168 115 82 138 90 250 90 97 0 102 -1 187 -43 87 -42 192 -128 240
-194 l20 -29 -23 -25 c-59 -63 -258 -76 -1139 -73 -361 2 -661 0 -668 -5 -23
-14 -13 -44 19 -55 42 -15 1417 -15 1543 -1 112 13 244 46 286 71 17 11 38 35
46 55 14 33 13 39 -5 78 -32 65 -226 215 -346 266 -157 67 -310 34 -500 -111
-141 -107 -224 -139 -360 -139 -108 0 -152 14 -201 64 -64 64 -88 152 -81 304
14 340 134 628 394 952 85 106 196 279 234 366 29 65 22 122 -30 230 -59 123
-62 156 -19 219 18 27 68 79 110 115 96 80 124 118 138 184 8 40 7 69 -5 131
-17 91 -20 190 -5 164 18 -30 41 -278 70 -732 6 -92 15 -193 20 -225 14 -85
12 -288 -5 -364 -19 -94 -59 -183 -169 -381 -53 -95 -122 -234 -155 -309 -88
-202 -191 -481 -191 -516 0 -47 19 -79 58 -98 73 -35 112 -6 305 231 120 147
309 432 925 1400 369 579 414 664 494 915 22 69 47 147 56 175 l17 49 260 33
c515 65 811 123 1094 215 266 86 469 183 535 257 19 21 19 22 -5 47 -64 68
-139 84 -429 91 -259 6 -415 -7 -652 -53 -228 -44 -521 -135 -615 -190 -101
-59 -171 -143 -209 -253 -22 -62 -25 -66 -61 -74 -47 -11 -297 -2 -538 19 -99
9 -263 18 -365 21 -186 5 -221 1 -406 -44 -20 -5 -21 0 -30 124 -16 232 -12
378 15 463 44 142 86 208 177 280 92 73 101 101 86 288 -18 214 -16 260 11
312 29 58 69 80 218 119 154 41 244 79 344 146 241 160 464 533 546 915 31
141 34 429 6 530 -28 98 -89 217 -151 292 l-55 66 107 25 c115 27 190 41 490
87 206 32 406 73 460 95 31 14 32 15 32 78 l0 64 -96 6 c-109 7 -207 -3 -564
-63 -321 -53 -488 -77 -669 -95 -139 -15 -200 -30 -215 -53 -3 -5 57 -31 134
-57 76 -27 137 -52 135 -55 -2 -4 -75 -49 -161 -101 -183 -110 -284 -197 -332
-287 -65 -121 -77 -240 -43 -417 25 -127 46 -303 38 -312 -4 -3 -43 18 -88 48
l-82 53 -23 -29 c-39 -49 -61 -123 -104 -352 -42 -223 -61 -284 -98 -317 -21
-19 -22 -18 -69 20 -227 186 -311 379 -234 537 13 27 79 122 147 213 133 178
174 251 204 370 23 90 38 111 181 259 102 105 177 215 147 215 -7 0 -78 -15
-158 -34 -312 -73 -442 -150 -471 -280 -15 -69 -9 -75 66 -76 l50 -1 -30 -16
c-39 -21 -107 -21 -139 0 -46 31 -46 18 8 497 13 118 32 341 40 495 21 367 29
426 82 640 112 445 307 1149 357 1287 35 97 73 155 125 193 127 92 711 361
734 337 3 -4 13 -43 22 -87 46 -243 21 -563 -70 -861 -40 -134 -71 -211 -241
-614 -185 -434 -232 -586 -254 -815 -8 -82 -9 -155 -3 -230 l9 -110 56 70 c31
39 78 106 105 150 114 185 219 240 419 217 405 -47 635 281 595 849 -36 508
-93 1017 -125 1117 -62 194 -183 316 -372 378 -70 23 -94 36 -141 81 -176 165
-380 154 -567 -31 -83 -83 -133 -154 -211 -301 -73 -137 -113 -158 -114 -59 0
63 23 127 110 301 52 107 105 195 154 260 184 245 470 451 711 513 93 24 241
29 325 11 93 -20 93 -20 3 -114 -45 -47 -89 -99 -98 -116 -42 -82 -20 -206 45
-249 47 -32 100 -26 205 20 58 26 81 32 83 22 2 -7 -13 -59 -33 -116 -61 -173
-58 -290 11 -426 18 -37 90 -139 160 -227 69 -88 167 -214 216 -280 50 -66 94
-124 98 -128 5 -5 18 -6 30 -2 21 7 22 12 18 83 -3 60 -25 148 -96 387 -185
625 -198 739 -106 878 14 22 24 40 22 42 -2 2 -26 -1 -53 -6 -129 -23 -105
-35 -194 103 l-80 122 33 36 c52 58 90 118 170 269 97 184 162 276 251 359
305 283 718 283 1293 -1 245 -120 292 -168 292 -294 0 -34 -3 -68 -6 -77 -10
-26 -75 -20 -120 11 -67 45 -123 65 -203 70 -108 7 -231 -18 -603 -126 l-67
-19 -51 69 c-86 116 -162 146 -279 110 -126 -38 -218 -141 -236 -265 -9 -57
20 -123 70 -162 84 -66 78 -49 49 -134 -32 -90 -42 -207 -24 -289 29 -137 142
-308 263 -398 159 -118 371 -173 495 -129 155 55 275 232 338 500 37 158 60
220 115 311 26 45 68 123 92 175 44 93 45 94 56 67 16 -40 13 -104 -7 -162
-17 -48 -77 -143 -168 -267 -50 -69 -75 -141 -144 -418 -57 -226 -73 -271
-116 -314 -49 -48 -97 -66 -222 -80 -64 -8 -146 -22 -181 -31 -196 -51 -353
-195 -456 -419 -19 -41 -35 -79 -35 -85 0 -15 5 -13 300 127 287 135 333 152
427 152 143 0 168 -56 119 -271 -44 -191 -89 -278 -439 -839 -273 -438 -309
-524 -309 -740 0 -238 82 -417 314 -687 96 -112 159 -169 232 -208 49 -26 57
-28 70 -15 18 18 10 66 -35 207 -52 165 -56 266 -22 508 9 68 18 235 22 440 4
216 10 337 18 349 10 18 12 16 22 -20 13 -45 26 -152 41 -337 19 -223 56 -326
152 -419 59 -57 131 -93 228 -114 159 -34 282 13 342 130 11 22 48 119 83 217
67 191 99 255 142 289 l28 22 3 -44 c2 -27 -8 -79 -28 -142 -16 -54 -30 -111
-30 -126 l0 -28 61 19 c33 10 64 17 68 14 14 -8 34 -202 29 -286 -6 -96 5
-138 55 -211 32 -48 32 -48 88 -48 l56 0 7 -212 c21 -704 45 -2727 53 -4461
l6 -1487 -66 0 -67 0 0 368 c-1 306 -47 5599 -49 5611 -1 2 -25 1 -55 -3 l-54
-6 -40 50 -41 51 -40 -87 c-23 -48 -41 -90 -41 -94 0 -7 -282 -73 -510 -119
-158 -32 -259 -66 -331 -111 -57 -37 -73 -37 -165 0 -137 55 -260 150 -323
250 -16 25 -68 107 -116 184 l-88 138 -18 -23 c-10 -13 -19 -31 -19 -39 0 -9
117 -264 260 -568 475 -1010 595 -1304 745 -1825 54 -187 121 -470 127 -537 3
-33 1 -35 -72 -75 -100 -55 -110 -76 -80 -159 100 -278 105 -308 97 -620 -8
-330 -33 -514 -181 -1356 -76 -434 -146 -892 -146 -958 0 -74 -7 -72 155 -42
60 11 132 20 160 20 117 0 241 -55 321 -143 63 -70 128 -208 97 -207 -141 8
-1136 109 -1144 117 -6 6 -16 45 -22 86 -9 60 -8 90 5 155 29 144 182 494 311
709 92 154 124 221 167 353 63 191 75 281 73 545 -2 409 -20 521 -98 613 -68
81 -189 99 -335 49 -238 -81 -347 -230 -272 -373 31 -60 72 -90 209 -155 79
-38 136 -72 161 -97 42 -42 86 -125 97 -183 l6 -35 -78 9 c-43 4 -112 8 -153
9 -227 1 -390 -165 -390 -399 0 -101 19 -214 65 -388 33 -123 37 -155 38 -260
1 -145 -15 -214 -78 -355 -65 -145 -96 -257 -102 -370 -4 -87 -3 -99 19 -140
36 -67 95 -99 197 -109 67 -7 96 -5 154 10 141 36 217 41 612 43 423 2 429 3
573 62 l62 26 0 63 c0 78 -19 134 -70 202 -48 63 -187 178 -250 206 -62 28
-190 34 -301 13 -47 -9 -91 -16 -97 -16 -31 0 -3 224 97 776 108 597 146 872
212 1529 21 217 -1 365 -86 572 -19 46 -35 87 -35 91 0 4 41 28 91 52 l91 45
-6 63 c-15 145 -107 504 -213 827 -124 379 -283 771 -506 1245 -147 315 -190
411 -184 416 2 2 66 -26 142 -62 76 -36 161 -71 190 -77 47 -9 56 -8 91 11
153 86 201 101 504 157 210 39 343 78 430 127 30 17 66 34 81 38 l26 8 7 -182
c4 -99 11 -953 16 -1896 9 -1806 27 -3742 36 -3847 l6 -63 128 0 128 0 8 97
c8 109 0 1307 -15 2393 -6 388 -15 1403 -22 2257 l-12 1552 68 73 c104 112
132 191 104 291 -9 33 -7 41 12 69 43 60 69 139 69 213 0 93 -14 138 -52 170
-29 25 -38 27 -93 22 -33 -3 -70 -8 -82 -12 -20 -6 -21 -3 -27 67 -10 121 -25
1630 -17 1673 33 177 232 234 349 101 35 -40 66 -98 102 -191 26 -67 42 -85
78 -85 92 0 148 227 92 375 -47 124 -209 245 -368 276 -125 24 -296 -9 -393
-77 -95 -65 -152 -168 -169 -304 -6 -52 -10 -397 -10 -911 l0 -827 -43 -25
c-60 -35 -130 -113 -166 -186 -17 -33 -50 -118 -72 -188 -90 -278 -128 -323
-272 -323 -215 0 -361 126 -396 340 -6 36 -18 165 -26 286 -9 137 -21 238 -30
265 -18 51 -60 115 -81 123 -19 7 -50 -55 -76 -152 -18 -68 -21 -123 -28 -447
-6 -266 -13 -394 -24 -455 -20 -104 -21 -239 -2 -305 7 -28 23 -85 35 -128 13
-43 20 -81 17 -84 -11 -11 -104 69 -167 144 -125 147 -236 340 -280 483 -28
93 -30 209 -5 295 22 76 145 332 221 461 32 55 126 205 208 334 252 395 303
503 328 696 24 194 -41 303 -181 304 -57 0 -227 -57 -437 -148 -90 -38 -163
-66 -163 -62 0 19 85 133 123 166 95 81 255 144 367 144 124 0 244 44 305 112
53 58 78 120 125 308 74 297 105 375 216 535 35 51 76 119 91 152 25 53 27 67
25 168 -2 61 -4 121 -5 134 -2 20 6 27 50 43 50 20 52 22 60 67 26 156 -14
254 -136 335 -138 91 -425 221 -596 270 -178 50 -390 69 -528 46z m22 -614
c17 -13 56 -57 86 -96 30 -40 57 -75 59 -77 3 -3 47 9 98 26 101 33 406 103
533 122 60 9 90 9 122 0 45 -12 103 -55 103 -75 0 -28 -85 -227 -131 -307 -65
-112 -97 -193 -143 -354 -42 -150 -136 -354 -185 -403 -58 -57 -106 -77 -191
-76 -91 1 -168 30 -298 111 -194 121 -283 258 -284 438 -1 95 20 174 68 264
19 35 34 64 32 66 -2 1 -33 14 -71 30 -103 43 -125 73 -118 155 5 55 80 149
146 183 48 26 135 22 174 -7z m-899 -413 c56 -41 83 -86 88 -148 4 -53 4 -53
-36 -79 -81 -51 -198 -106 -225 -106 -43 0 -77 40 -77 90 0 23 7 55 16 73 17
33 172 197 187 197 5 0 26 -12 47 -27z m219 -295 c-8 -75 3 -222 21 -305 6
-26 31 -109 55 -183 92 -283 135 -434 141 -488 4 -36 3 -53 -3 -47 -5 6 -50
57 -100 115 -130 151 -207 259 -255 357 -40 81 -43 92 -42 167 0 70 7 102 52
236 29 85 55 160 59 165 11 14 64 55 72 55 4 0 4 -33 0 -72z m-949 -273 c17
-9 39 -33 50 -56 l21 -40 -53 -23 c-29 -13 -179 -83 -332 -155 -154 -72 -281
-129 -283 -128 -1 2 22 46 51 98 91 159 201 263 315 300 71 23 191 25 231 4z
m3695 -65 c81 -12 193 -62 248 -109 20 -18 51 -61 68 -96 28 -58 31 -71 27
-137 -2 -40 -12 -91 -22 -113 l-18 -40 -27 70 c-39 100 -54 125 -103 172 -148
144 -383 101 -454 -83 -23 -59 -23 -70 -10 -1129 l9 -740 -73 -52 c-40 -29
-79 -53 -86 -53 -23 0 -29 228 -28 1135 2 894 2 900 23 956 50 133 187 221
351 228 14 0 57 -4 95 -9z m-3353 -152 c32 -17 80 -55 108 -84 115 -122 150
-268 205 -869 36 -397 44 -550 34 -672 -19 -235 -93 -405 -209 -478 -78 -49
-123 -57 -320 -59 -180 -1 -187 -2 -244 -29 -84 -39 -139 -87 -198 -174 -65
-98 -73 -87 -58 80 16 188 32 237 295 872 200 483 266 728 281 1035 6 112 2
182 -22 377 l-7 52 39 -10 c22 -6 65 -25 96 -41z m3302 -2053 c37 -38 31 -179
-11 -257 -40 -73 -52 -81 -99 -65 l-39 14 -3 137 -3 137 53 24 c62 29 81 31
102 10z m-266 -347 c-13 -10 -42 -31 -65 -48 l-43 -31 0 115 0 115 63 45 62
45 3 -112 c3 -106 2 -112 -20 -129z m22 -133 c0 -49 -16 -72 -69 -100 l-31
-16 0 42 c0 36 6 48 40 81 23 21 45 38 50 38 6 0 10 -20 10 -45z m-2252 -131
c-11 -11 -170 -45 -523 -110 -280 -52 -520 -94 -534 -94 -24 0 -101 45 -101
59 0 4 44 12 98 19 53 7 214 35 357 62 329 63 439 78 595 79 114 1 123 0 108
-15z m2262 -56 c0 -39 -7 -51 -38 -67 -33 -17 -52 -7 -52 28 0 25 7 34 38 50
50 27 52 26 52 -11z m-4128 -431 c-72 -103 -173 -160 -284 -159 -39 0 -75 5
-81 11 -16 16 57 79 138 117 63 30 245 86 253 78 2 -1 -10 -22 -26 -47z m2801
-2824 c78 -15 88 -19 85 -37 -4 -25 -118 -84 -300 -156 -296 -116 -612 -185
-1138 -250 -135 -17 -258 -32 -274 -35 -28 -5 -28 -4 -21 33 11 61 53 138 96
177 119 108 593 242 969 275 262 22 439 20 583 -7z m-2283 -533 c69 -5 211
-15 315 -21 105 -7 191 -13 192 -14 2 -1 -16 -59 -38 -131 -71 -225 -360 -753
-700 -1276 -140 -216 -585 -874 -729 -1078 -72 -101 -146 -177 -200 -205 l-33
-17 7 66 c14 140 120 393 296 712 190 342 215 419 215 664 0 120 -5 187 -18
245 -24 112 -37 286 -37 520 -1 243 -15 331 -75 478 -11 26 53 50 150 58 129
9 520 9 655 -1z m2308 -254 c133 -69 178 -333 133 -781 -31 -307 -48 -362
-205 -655 -190 -354 -304 -600 -336 -726 -31 -119 -24 -223 21 -347 l21 -57
172 0 c286 0 566 -27 760 -74 l91 -22 -162 -7 c-89 -4 -240 -5 -335 -1 -193 7
-344 -5 -454 -36 -93 -27 -201 -36 -248 -20 -77 25 -126 90 -126 167 0 58 46
213 100 337 60 138 77 196 90 304 13 102 1 220 -36 362 -29 113 -55 300 -57
419 -2 78 1 91 25 133 49 82 134 138 243 160 49 10 72 9 150 -7 96 -19 161
-16 177 7 5 7 7 46 4 87 -6 93 -48 184 -109 237 -23 20 -94 61 -157 91 -172
82 -210 118 -210 199 0 85 89 160 261 218 83 29 147 33 187 12z"/>
</g>
</svg>
